STARTFONT 2.1
FONT -misc-Gomme-Medium-R-Normal--20-200-100-100-C-100-ISO10646-1
SIZE 20 100 100
FONTBOUNDINGBOX 10 20 0 -6
STARTPROPERTIES 19
FAMILY_NAME "Gomme"
FOUNDRY "misc"
COPYRIGHT "(CC BY-NC-SA 4.0) Georg Schabel"
SETWIDTH_NAME "Normal"
WEIGHT_NAME "Medium"
SLANT "R"
PIXEL_SIZE 20
POINT_SIZE 200
RESOLUTION_X 100
RESOLUTION_Y 100
SPACING "C"
AVERAGE_WIDTH 100
CHARSET_REGISTRY "ISO10646"
CHARSET_ENCODING "1"
MIN_SPACE 10
FONT_ASCENT 14
FONT_DESCENT 6
DEFAULT_CHAR 0
_GBDFED_INFO "Edited with gbdfed 1.6."
ENDPROPERTIES
CHARS 436
STARTCHAR <control>
ENCODING 0
SWIDTH 360 0
DWIDTH 10 0
BBX 10 20 0 -6
BITMAP
0000
0000
0000
0000
0000
5F00
5100
5500
5500
5500
5500
5D00
4100
7F00
0000
0000
0000
0000
0000
0000
ENDCHAR
STARTCHAR SPACE
ENCODING 32
SWIDTH 360 0
DWIDTH 10 0
BBX 10 20 0 -6
BITMAP
0000
0000
0000
0000
0000
0000
0000
0000
0000
0000
0000
0000
0000
0000
0000
0000
0000
0000
0000
0000
ENDCHAR
STARTCHAR EXCLAMATION MARK
ENCODING 33
SWIDTH 360 0
DWIDTH 10 0
BBX 10 20 0 -6
BITMAP
0000
0000
0000
0000
0800
0800
0800
0800
0800
0800
0000
0000
0800
0800
0000
0000
0000
0000
0000
0000
ENDCHAR
STARTCHAR QUOTATION MARK
ENCODING 34
SWIDTH 360 0
DWIDTH 10 0
BBX 10 20 0 -6
BITMAP
0000
0000
0000
0000
2200
2200
2200
2200
0000
0000
0000
0000
0000
0000
0000
0000
0000
0000
0000
0000
ENDCHAR
STARTCHAR NUMBER SIGN
ENCODING 35
SWIDTH 360 0
DWIDTH 10 0
BBX 10 20 0 -6
BITMAP
0000
0000
0000
0000
0000
2200
2200
7F00
2200
2200
2200
7F00
2200
2200
0000
0000
0000
0000
0000
0000
ENDCHAR
STARTCHAR DOLLAR SIGN
ENCODING 36
SWIDTH 360 0
DWIDTH 10 0
BBX 10 20 0 -6
BITMAP
0000
0000
0000
0800
0800
3E00
4100
4000
4000
3E00
0100
0100
4100
3E00
0800
0800
0000
0000
0000
0000
ENDCHAR
STARTCHAR PERCENT SIGN
ENCODING 37
SWIDTH 360 0
DWIDTH 10 0
BBX 10 20 0 -6
BITMAP
0000
0000
0000
0000
3000
4880
4900
3200
0400
0800
1300
2480
4480
0300
0000
0000
0000
0000
0000
0000
ENDCHAR
STARTCHAR AMPERSAND
ENCODING 38
SWIDTH 360 0
DWIDTH 10 0
BBX 10 20 0 -6
BITMAP
0000
0000
0000
0000
3C00
4200
4000
2000
1000
2800
4500
4200
4500
3880
0000
0000
0000
0000
0000
0000
ENDCHAR
STARTCHAR APOSTROPHE
ENCODING 39
SWIDTH 360 0
DWIDTH 10 0
BBX 10 20 0 -6
BITMAP
0000
0000
0000
0800
0800
0800
0800
0000
0000
0000
0000
0000
0000
0000
0000
0000
0000
0000
0000
0000
ENDCHAR
STARTCHAR LEFT PARENTHESIS
ENCODING 40
SWIDTH 360 0
DWIDTH 10 0
BBX 10 20 0 -6
BITMAP
0000
0000
0400
0800
1000
1000
2000
2000
2000
2000
2000
2000
2000
2000
1000
1000
0800
0400
0000
0000
ENDCHAR
STARTCHAR RIGHT PARENTHESIS
ENCODING 41
SWIDTH 360 0
DWIDTH 10 0
BBX 10 20 0 -6
BITMAP
0000
0000
2000
1000
0800
0800
0400
0400
0400
0400
0400
0400
0400
0400
0800
0800
1000
2000
0000
0000
ENDCHAR
STARTCHAR ASTERISK
ENCODING 42
SWIDTH 360 0
DWIDTH 10 0
BBX 10 20 0 -6
BITMAP
0000
0000
0000
0000
0000
0000
0800
4900
2A00
1C00
2A00
4900
0800
0000
0000
0000
0000
0000
0000
0000
ENDCHAR
STARTCHAR PLUS SIGN
ENCODING 43
SWIDTH 360 0
DWIDTH 10 0
BBX 10 20 0 -6
BITMAP
0000
0000
0000
0000
0000
0000
0800
0800
0800
7F00
0800
0800
0800
0000
0000
0000
0000
0000
0000
0000
ENDCHAR
STARTCHAR COMMA
ENCODING 44
SWIDTH 360 0
DWIDTH 10 0
BBX 10 20 0 -6
BITMAP
0000
0000
0000
0000
0000
0000
0000
0000
0000
0000
0000
0000
1800
1800
0800
0800
1000
0000
0000
0000
ENDCHAR
STARTCHAR HYPHEN-MINUS
ENCODING 45
SWIDTH 360 0
DWIDTH 10 0
BBX 10 20 0 -6
BITMAP
0000
0000
0000
0000
0000
0000
0000
0000
0000
7F00
0000
0000
0000
0000
0000
0000
0000
0000
0000
0000
ENDCHAR
STARTCHAR FULL STOP
ENCODING 46
SWIDTH 360 0
DWIDTH 10 0
BBX 10 20 0 -6
BITMAP
0000
0000
0000
0000
0000
0000
0000
0000
0000
0000
0000
0000
1800
1800
0000
0000
0000
0000
0000
0000
ENDCHAR
STARTCHAR SOLIDUS
ENCODING 47
SWIDTH 360 0
DWIDTH 10 0
BBX 10 20 0 -6
BITMAP
0000
0000
0000
0100
0100
0200
0200
0400
0400
0800
0800
1000
1000
2000
2000
4000
4000
0000
0000
0000
ENDCHAR
STARTCHAR DIGIT ZERO
ENCODING 48
SWIDTH 360 0
DWIDTH 10 0
BBX 10 20 0 -6
BITMAP
0000
0000
0000
0000
0000
3E00
4100
4300
4500
4900
5100
6100
4100
3E00
0000
0000
0000
0000
0000
0000
ENDCHAR
STARTCHAR DIGIT ONE
ENCODING 49
SWIDTH 360 0
DWIDTH 10 0
BBX 10 20 0 -6
BITMAP
0000
0000
0000
0000
0000
0800
1800
2800
4800
0800
0800
0800
0800
7F00
0000
0000
0000
0000
0000
0000
ENDCHAR
STARTCHAR DIGIT TWO
ENCODING 50
SWIDTH 360 0
DWIDTH 10 0
BBX 10 20 0 -6
BITMAP
0000
0000
0000
0000
0000
3E00
4100
0100
0200
0400
0800
1000
2000
7F00
0000
0000
0000
0000
0000
0000
ENDCHAR
STARTCHAR DIGIT THREE
ENCODING 51
SWIDTH 360 0
DWIDTH 10 0
BBX 10 20 0 -6
BITMAP
0000
0000
0000
0000
0000
7F00
0200
0400
0C00
0200
0100
0100
4100
3E00
0000
0000
0000
0000
0000
0000
ENDCHAR
STARTCHAR DIGIT FOUR
ENCODING 52
SWIDTH 360 0
DWIDTH 10 0
BBX 10 20 0 -6
BITMAP
0000
0000
0000
0000
0000
0200
0600
0A00
1200
2200
4200
7F00
0200
0200
0000
0000
0000
0000
0000
0000
ENDCHAR
STARTCHAR DIGIT FIVE
ENCODING 53
SWIDTH 360 0
DWIDTH 10 0
BBX 10 20 0 -6
BITMAP
0000
0000
0000
0000
0000
7F00
4000
4000
7E00
0100
0100
0100
4100
3E00
0000
0000
0000
0000
0000
0000
ENDCHAR
STARTCHAR DIGIT SIX
ENCODING 54
SWIDTH 360 0
DWIDTH 10 0
BBX 10 20 0 -6
BITMAP
0000
0000
0000
0000
0000
1E00
2000
4000
7E00
4100
4100
4100
4100
3E00
0000
0000
0000
0000
0000
0000
ENDCHAR
STARTCHAR DIGIT SEVEN
ENCODING 55
SWIDTH 360 0
DWIDTH 10 0
BBX 10 20 0 -6
BITMAP
0000
0000
0000
0000
0000
7F00
0100
0200
0200
0400
0400
0800
0800
0800
0000
0000
0000
0000
0000
0000
ENDCHAR
STARTCHAR DIGIT EIGHT
ENCODING 56
SWIDTH 360 0
DWIDTH 10 0
BBX 10 20 0 -6
BITMAP
0000
0000
0000
0000
0000
3E00
4100
4100
4100
3E00
4100
4100
4100
3E00
0000
0000
0000
0000
0000
0000
ENDCHAR
STARTCHAR DIGIT NINE
ENCODING 57
SWIDTH 360 0
DWIDTH 10 0
BBX 10 20 0 -6
BITMAP
0000
0000
0000
0000
0000
3E00
4100
4100
4100
4100
3F00
0100
0200
1C00
0000
0000
0000
0000
0000
0000
ENDCHAR
STARTCHAR COLON
ENCODING 58
SWIDTH 360 0
DWIDTH 10 0
BBX 10 20 0 -6
BITMAP
0000
0000
0000
0000
0000
0000
1800
1800
0000
0000
0000
0000
1800
1800
0000
0000
0000
0000
0000
0000
ENDCHAR
STARTCHAR SEMICOLON
ENCODING 59
SWIDTH 360 0
DWIDTH 10 0
BBX 10 20 0 -6
BITMAP
0000
0000
0000
0000
0000
0000
1800
1800
0000
0000
0000
0000
1800
1800
0800
0800
1000
0000
0000
0000
ENDCHAR
STARTCHAR LESS-THAN SIGN
ENCODING 60
SWIDTH 360 0
DWIDTH 10 0
BBX 10 20 0 -6
BITMAP
0000
0000
0000
0000
0000
0200
0400
0800
1000
2000
1000
0800
0400
0200
0000
0000
0000
0000
0000
0000
ENDCHAR
STARTCHAR EQUALS SIGN
ENCODING 61
SWIDTH 360 0
DWIDTH 10 0
BBX 10 20 0 -6
BITMAP
0000
0000
0000
0000
0000
0000
0000
7F00
0000
0000
0000
7F00
0000
0000
0000
0000
0000
0000
0000
0000
ENDCHAR
STARTCHAR GREATER-THAN SIGN
ENCODING 62
SWIDTH 360 0
DWIDTH 10 0
BBX 10 20 0 -6
BITMAP
0000
0000
0000
0000
0000
2000
1000
0800
0400
0200
0400
0800
1000
2000
0000
0000
0000
0000
0000
0000
ENDCHAR
STARTCHAR QUESTION MARK
ENCODING 63
SWIDTH 360 0
DWIDTH 10 0
BBX 10 20 0 -6
BITMAP
0000
0000
0000
0000
3E00
4100
0100
0200
0400
0800
0000
0000
0800
0800
0000
0000
0000
0000
0000
0000
ENDCHAR
STARTCHAR COMMERCIAL AT
ENCODING 64
SWIDTH 360 0
DWIDTH 10 0
BBX 10 20 0 -6
BITMAP
0000
0000
0000
0000
3E00
4100
4100
4500
4900
5100
5100
5100
4E00
4000
4000
3E00
0000
0000
0000
0000
ENDCHAR
STARTCHAR LATIN CAPITAL LETTER A
ENCODING 65
SWIDTH 360 0
DWIDTH 10 0
BBX 10 20 0 -6
BITMAP
0000
0000
0000
0000
0000
3E00
4100
4100
4100
4100
7F00
4100
4100
4100
0000
0000
0000
0000
0000
0000
ENDCHAR
STARTCHAR LATIN CAPITAL LETTER B
ENCODING 66
SWIDTH 360 0
DWIDTH 10 0
BBX 10 20 0 -6
BITMAP
0000
0000
0000
0000
0000
7E00
4100
4100
4100
7E00
4100
4100
4100
7E00
0000
0000
0000
0000
0000
0000
ENDCHAR
STARTCHAR LATIN CAPITAL LETTER C
ENCODING 67
SWIDTH 360 0
DWIDTH 10 0
BBX 10 20 0 -6
BITMAP
0000
0000
0000
0000
0000
1E00
2100
4000
4000
4000
4000
4000
2100
1E00
0000
0000
0000
0000
0000
0000
ENDCHAR
STARTCHAR LATIN CAPITAL LETTER D
ENCODING 68
SWIDTH 360 0
DWIDTH 10 0
BBX 10 20 0 -6
BITMAP
0000
0000
0000
0000
0000
7C00
4200
4100
4100
4100
4100
4100
4200
7C00
0000
0000
0000
0000
0000
0000
ENDCHAR
STARTCHAR LATIN CAPITAL LETTER E
ENCODING 69
SWIDTH 360 0
DWIDTH 10 0
BBX 10 20 0 -6
BITMAP
0000
0000
0000
0000
0000
7F00
4000
4000
4000
7C00
4000
4000
4000
7F00
0000
0000
0000
0000
0000
0000
ENDCHAR
STARTCHAR LATIN CAPITAL LETTER F
ENCODING 70
SWIDTH 360 0
DWIDTH 10 0
BBX 10 20 0 -6
BITMAP
0000
0000
0000
0000
0000
7F00
4000
4000
4000
7C00
4000
4000
4000
4000
0000
0000
0000
0000
0000
0000
ENDCHAR
STARTCHAR LATIN CAPITAL LETTER G
ENCODING 71
SWIDTH 360 0
DWIDTH 10 0
BBX 10 20 0 -6
BITMAP
0000
0000
0000
0000
0000
3E00
4100
4000
4000
4700
4100
4100
4100
3E00
0000
0000
0000
0000
0000
0000
ENDCHAR
STARTCHAR LATIN CAPITAL LETTER H
ENCODING 72
SWIDTH 360 0
DWIDTH 10 0
BBX 10 20 0 -6
BITMAP
0000
0000
0000
0000
0000
4100
4100
4100
4100
7F00
4100
4100
4100
4100
0000
0000
0000
0000
0000
0000
ENDCHAR
STARTCHAR LATIN CAPITAL LETTER I
ENCODING 73
SWIDTH 360 0
DWIDTH 10 0
BBX 10 20 0 -6
BITMAP
0000
0000
0000
0000
0000
7F00
0800
0800
0800
0800
0800
0800
0800
7F00
0000
0000
0000
0000
0000
0000
ENDCHAR
STARTCHAR LATIN CAPITAL LETTER J
ENCODING 74
SWIDTH 360 0
DWIDTH 10 0
BBX 10 20 0 -6
BITMAP
0000
0000
0000
0000
0000
1F00
0100
0100
0100
0100
0100
0100
4100
3E00
0000
0000
0000
0000
0000
0000
ENDCHAR
STARTCHAR LATIN CAPITAL LETTER K
ENCODING 75
SWIDTH 360 0
DWIDTH 10 0
BBX 10 20 0 -6
BITMAP
0000
0000
0000
0000
0000
4100
4200
4400
4800
5000
6800
4400
4200
4100
0000
0000
0000
0000
0000
0000
ENDCHAR
STARTCHAR LATIN CAPITAL LETTER L
ENCODING 76
SWIDTH 360 0
DWIDTH 10 0
BBX 10 20 0 -6
BITMAP
0000
0000
0000
0000
0000
4000
4000
4000
4000
4000
4000
4000
4000
7F00
0000
0000
0000
0000
0000
0000
ENDCHAR
STARTCHAR LATIN CAPITAL LETTER M
ENCODING 77
SWIDTH 360 0
DWIDTH 10 0
BBX 10 20 0 -6
BITMAP
0000
0000
0000
0000
0000
4100
6300
5500
4900
4900
4100
4100
4100
4100
0000
0000
0000
0000
0000
0000
ENDCHAR
STARTCHAR LATIN CAPITAL LETTER N
ENCODING 78
SWIDTH 360 0
DWIDTH 10 0
BBX 10 20 0 -6
BITMAP
0000
0000
0000
0000
0000
6100
5100
4900
4500
4300
4100
4100
4100
4100
0000
0000
0000
0000
0000
0000
ENDCHAR
STARTCHAR LATIN CAPITAL LETTER O
ENCODING 79
SWIDTH 360 0
DWIDTH 10 0
BBX 10 20 0 -6
BITMAP
0000
0000
0000
0000
0000
3E00
4100
4100
4100
4100
4100
4100
4100
3E00
0000
0000
0000
0000
0000
0000
ENDCHAR
STARTCHAR LATIN CAPITAL LETTER P
ENCODING 80
SWIDTH 360 0
DWIDTH 10 0
BBX 10 20 0 -6
BITMAP
0000
0000
0000
0000
0000
7E00
4100
4100
4100
4100
7E00
4000
4000
4000
0000
0000
0000
0000
0000
0000
ENDCHAR
STARTCHAR LATIN CAPITAL LETTER Q
ENCODING 81
SWIDTH 360 0
DWIDTH 10 0
BBX 10 20 0 -6
BITMAP
0000
0000
0000
0000
0000
3E00
4100
4100
4100
4100
4100
4100
4500
3E00
0100
0000
0000
0000
0000
0000
ENDCHAR
STARTCHAR LATIN CAPITAL LETTER R
ENCODING 82
SWIDTH 360 0
DWIDTH 10 0
BBX 10 20 0 -6
BITMAP
0000
0000
0000
0000
0000
7E00
4100
4100
4100
7E00
4200
4200
4100
4100
0000
0000
0000
0000
0000
0000
ENDCHAR
STARTCHAR LATIN CAPITAL LETTER S
ENCODING 83
SWIDTH 360 0
DWIDTH 10 0
BBX 10 20 0 -6
BITMAP
0000
0000
0000
0000
0000
3F00
4000
2000
1000
0800
0400
0200
0100
7E00
0000
0000
0000
0000
0000
0000
ENDCHAR
STARTCHAR LATIN CAPITAL LETTER T
ENCODING 84
SWIDTH 360 0
DWIDTH 10 0
BBX 10 20 0 -6
BITMAP
0000
0000
0000
0000
0000
FF80
0800
0800
0800
0800
0800
0800
0800
0800
0000
0000
0000
0000
0000
0000
ENDCHAR
STARTCHAR LATIN CAPITAL LETTER U
ENCODING 85
SWIDTH 360 0
DWIDTH 10 0
BBX 10 20 0 -6
BITMAP
0000
0000
0000
0000
0000
4100
4100
4100
4100
4100
4100
4100
4100
3E00
0000
0000
0000
0000
0000
0000
ENDCHAR
STARTCHAR LATIN CAPITAL LETTER V
ENCODING 86
SWIDTH 360 0
DWIDTH 10 0
BBX 10 20 0 -6
BITMAP
0000
0000
0000
0000
0000
4100
4100
4100
2200
2200
2200
1400
1400
0800
0000
0000
0000
0000
0000
0000
ENDCHAR
STARTCHAR LATIN CAPITAL LETTER W
ENCODING 87
SWIDTH 360 0
DWIDTH 10 0
BBX 10 20 0 -6
BITMAP
0000
0000
0000
0000
0000
4100
4100
4100
4100
4100
4900
4900
5500
6300
0000
0000
0000
0000
0000
0000
ENDCHAR
STARTCHAR LATIN CAPITAL LETTER X
ENCODING 88
SWIDTH 360 0
DWIDTH 10 0
BBX 10 20 0 -6
BITMAP
0000
0000
0000
0000
0000
4100
4100
2200
1400
0800
1400
2200
4100
4100
0000
0000
0000
0000
0000
0000
ENDCHAR
STARTCHAR LATIN CAPITAL LETTER Y
ENCODING 89
SWIDTH 360 0
DWIDTH 10 0
BBX 10 20 0 -6
BITMAP
0000
0000
0000
0000
0000
4100
4100
2200
1400
0800
0800
0800
0800
0800
0000
0000
0000
0000
0000
0000
ENDCHAR
STARTCHAR LATIN CAPITAL LETTER Z
ENCODING 90
SWIDTH 360 0
DWIDTH 10 0
BBX 10 20 0 -6
BITMAP
0000
0000
0000
0000
0000
7F00
0100
0200
0400
0800
1000
2000
4000
7F00
0000
0000
0000
0000
0000
0000
ENDCHAR
STARTCHAR LEFT SQUARE BRACKET
ENCODING 91
SWIDTH 360 0
DWIDTH 10 0
BBX 10 20 0 -6
BITMAP
0000
0000
3E00
2000
2000
2000
2000
2000
2000
2000
2000
2000
2000
2000
2000
2000
2000
3E00
0000
0000
ENDCHAR
STARTCHAR REVERSE SOLIDUS
ENCODING 92
SWIDTH 360 0
DWIDTH 10 0
BBX 10 20 0 -6
BITMAP
0000
0000
0000
4000
4000
2000
2000
1000
1000
0800
0800
0400
0400
0200
0200
0100
0100
0000
0000
0000
ENDCHAR
STARTCHAR RIGHT SQUARE BRACKET
ENCODING 93
SWIDTH 360 0
DWIDTH 10 0
BBX 10 20 0 -6
BITMAP
0000
0000
3E00
0200
0200
0200
0200
0200
0200
0200
0200
0200
0200
0200
0200
0200
0200
3E00
0000
0000
ENDCHAR
STARTCHAR CIRCUMFLEX ACCENT
ENCODING 94
SWIDTH 360 0
DWIDTH 10 0
BBX 10 20 0 -6
BITMAP
0000
0000
0800
1400
2200
4100
0000
0000
0000
0000
0000
0000
0000
0000
0000
0000
0000
0000
0000
0000
ENDCHAR
STARTCHAR LOW LINE
ENCODING 95
SWIDTH 360 0
DWIDTH 10 0
BBX 10 20 0 -6
BITMAP
0000
0000
0000
0000
0000
0000
0000
0000
0000
0000
0000
0000
0000
0000
0000
0000
FFC0
0000
0000
0000
ENDCHAR
STARTCHAR GRAVE ACCENT
ENCODING 96
SWIDTH 360 0
DWIDTH 10 0
BBX 10 20 0 -6
BITMAP
0000
0000
2000
1000
0800
0400
0000
0000
0000
0000
0000
0000
0000
0000
0000
0000
0000
0000
0000
0000
ENDCHAR
STARTCHAR LATIN SMALL LETTER A
ENCODING 97
SWIDTH 360 0
DWIDTH 10 0
BBX 10 20 0 -6
BITMAP
0000
0000
0000
0000
0000
0000
0000
3E00
0100
0100
3F00
4100
4300
3D00
0000
0000
0000
0000
0000
0000
ENDCHAR
STARTCHAR LATIN SMALL LETTER B
ENCODING 98
SWIDTH 360 0
DWIDTH 10 0
BBX 10 20 0 -6
BITMAP
0000
0000
0000
0000
4000
4000
4000
4E00
5100
6100
4100
4100
4100
7E00
0000
0000
0000
0000
0000
0000
ENDCHAR
STARTCHAR LATIN SMALL LETTER C
ENCODING 99
SWIDTH 360 0
DWIDTH 10 0
BBX 10 20 0 -6
BITMAP
0000
0000
0000
0000
0000
0000
0000
3E00
4100
4000
4000
4000
4100
3E00
0000
0000
0000
0000
0000
0000
ENDCHAR
STARTCHAR LATIN SMALL LETTER D
ENCODING 100
SWIDTH 360 0
DWIDTH 10 0
BBX 10 20 0 -6
BITMAP
0000
0000
0000
0000
0100
0100
0100
3D00
4300
4100
4100
4100
4300
3D00
0000
0000
0000
0000
0000
0000
ENDCHAR
STARTCHAR LATIN SMALL LETTER E
ENCODING 101
SWIDTH 360 0
DWIDTH 10 0
BBX 10 20 0 -6
BITMAP
0000
0000
0000
0000
0000
0000
0000
3E00
4100
4100
7F00
4000
4000
3F00
0000
0000
0000
0000
0000
0000
ENDCHAR
STARTCHAR LATIN SMALL LETTER F
ENCODING 102
SWIDTH 360 0
DWIDTH 10 0
BBX 10 20 0 -6
BITMAP
0000
0000
0000
0000
0F00
1000
1000
1000
7E00
1000
1000
1000
1000
1000
1000
1000
0000
0000
0000
0000
ENDCHAR
STARTCHAR LATIN SMALL LETTER G
ENCODING 103
SWIDTH 360 0
DWIDTH 10 0
BBX 10 20 0 -6
BITMAP
0000
0000
0000
0000
0000
0000
0000
3D00
4300
4100
4100
4100
4300
3D00
0100
0100
7E00
0000
0000
0000
ENDCHAR
STARTCHAR LATIN SMALL LETTER H
ENCODING 104
SWIDTH 360 0
DWIDTH 10 0
BBX 10 20 0 -6
BITMAP
0000
0000
0000
0000
4000
4000
4000
4E00
5100
6100
4100
4100
4100
4100
0000
0000
0000
0000
0000
0000
ENDCHAR
STARTCHAR LATIN SMALL LETTER I
ENCODING 105
SWIDTH 360 0
DWIDTH 10 0
BBX 10 20 0 -6
BITMAP
0000
0000
0000
0000
0800
0800
0000
7800
0800
0800
0800
0800
0800
7F00
0000
0000
0000
0000
0000
0000
ENDCHAR
STARTCHAR LATIN SMALL LETTER J
ENCODING 106
SWIDTH 360 0
DWIDTH 10 0
BBX 10 20 0 -6
BITMAP
0000
0000
0000
0000
0200
0200
0000
1E00
0200
0200
0200
0200
0200
0200
0200
0200
7C00
0000
0000
0000
ENDCHAR
STARTCHAR LATIN SMALL LETTER K
ENCODING 107
SWIDTH 360 0
DWIDTH 10 0
BBX 10 20 0 -6
BITMAP
0000
0000
0000
0000
4000
4000
4000
4100
4200
4400
4800
5400
6200
4100
0000
0000
0000
0000
0000
0000
ENDCHAR
STARTCHAR LATIN SMALL LETTER L
ENCODING 108
SWIDTH 360 0
DWIDTH 10 0
BBX 10 20 0 -6
BITMAP
0000
0000
0000
0000
7800
0800
0800
0800
0800
0800
0800
0800
0800
7F00
0000
0000
0000
0000
0000
0000
ENDCHAR
STARTCHAR LATIN SMALL LETTER M
ENCODING 109
SWIDTH 360 0
DWIDTH 10 0
BBX 10 20 0 -6
BITMAP
0000
0000
0000
0000
0000
0000
0000
5B00
6D00
4900
4900
4900
4900
4900
0000
0000
0000
0000
0000
0000
ENDCHAR
STARTCHAR LATIN SMALL LETTER N
ENCODING 110
SWIDTH 360 0
DWIDTH 10 0
BBX 10 20 0 -6
BITMAP
0000
0000
0000
0000
0000
0000
0000
4E00
5100
6100
4100
4100
4100
4100
0000
0000
0000
0000
0000
0000
ENDCHAR
STARTCHAR LATIN SMALL LETTER O
ENCODING 111
SWIDTH 360 0
DWIDTH 10 0
BBX 10 20 0 -6
BITMAP
0000
0000
0000
0000
0000
0000
0000
3E00
4100
4100
4100
4100
4100
3E00
0000
0000
0000
0000
0000
0000
ENDCHAR
STARTCHAR LATIN SMALL LETTER P
ENCODING 112
SWIDTH 360 0
DWIDTH 10 0
BBX 10 20 0 -6
BITMAP
0000
0000
0000
0000
0000
0000
0000
5E00
6100
4100
4100
4100
6100
5E00
4000
4000
4000
4000
0000
0000
ENDCHAR
STARTCHAR LATIN SMALL LETTER Q
ENCODING 113
SWIDTH 360 0
DWIDTH 10 0
BBX 10 20 0 -6
BITMAP
0000
0000
0000
0000
0000
0000
0000
3F00
4100
4100
4100
4100
4300
3D00
0100
0100
0100
0100
0000
0000
ENDCHAR
STARTCHAR LATIN SMALL LETTER R
ENCODING 114
SWIDTH 360 0
DWIDTH 10 0
BBX 10 20 0 -6
BITMAP
0000
0000
0000
0000
0000
0000
0000
4E00
5100
6100
4000
4000
4000
4000
0000
0000
0000
0000
0000
0000
ENDCHAR
STARTCHAR LATIN SMALL LETTER S
ENCODING 115
SWIDTH 360 0
DWIDTH 10 0
BBX 10 20 0 -6
BITMAP
0000
0000
0000
0000
0000
0000
0000
3F00
2000
1000
0800
0400
0200
7E00
0000
0000
0000
0000
0000
0000
ENDCHAR
STARTCHAR LATIN SMALL LETTER T
ENCODING 116
SWIDTH 360 0
DWIDTH 10 0
BBX 10 20 0 -6
BITMAP
0000
0000
0000
0000
0000
1000
1000
7F00
1000
1000
1000
1000
1000
0F00
0000
0000
0000
0000
0000
0000
ENDCHAR
STARTCHAR LATIN SMALL LETTER U
ENCODING 117
SWIDTH 360 0
DWIDTH 10 0
BBX 10 20 0 -6
BITMAP
0000
0000
0000
0000
0000
0000
0000
4100
4100
4100
4100
4300
4500
3900
0000
0000
0000
0000
0000
0000
ENDCHAR
STARTCHAR LATIN SMALL LETTER V
ENCODING 118
SWIDTH 360 0
DWIDTH 10 0
BBX 10 20 0 -6
BITMAP
0000
0000
0000
0000
0000
0000
0000
4100
4100
2200
2200
1400
1400
0800
0000
0000
0000
0000
0000
0000
ENDCHAR
STARTCHAR LATIN SMALL LETTER W
ENCODING 119
SWIDTH 360 0
DWIDTH 10 0
BBX 10 20 0 -6
BITMAP
0000
0000
0000
0000
0000
0000
0000
4100
4100
4100
4900
4900
5500
6300
0000
0000
0000
0000
0000
0000
ENDCHAR
STARTCHAR LATIN SMALL LETTER X
ENCODING 120
SWIDTH 360 0
DWIDTH 10 0
BBX 10 20 0 -6
BITMAP
0000
0000
0000
0000
0000
0000
0000
4100
4100
2200
1C00
2200
4100
4100
0000
0000
0000
0000
0000
0000
ENDCHAR
STARTCHAR LATIN SMALL LETTER Y
ENCODING 121
SWIDTH 360 0
DWIDTH 10 0
BBX 10 20 0 -6
BITMAP
0000
0000
0000
0000
0000
0000
0000
4100
4100
4100
4100
4100
4300
3D00
0100
0100
7E00
0000
0000
0000
ENDCHAR
STARTCHAR LATIN SMALL LETTER Z
ENCODING 122
SWIDTH 360 0
DWIDTH 10 0
BBX 10 20 0 -6
BITMAP
0000
0000
0000
0000
0000
0000
0000
7F00
0200
0400
0800
1000
2000
7F00
0000
0000
0000
0000
0000
0000
ENDCHAR
STARTCHAR LEFT CURLY BRACKET
ENCODING 123
SWIDTH 360 0
DWIDTH 10 0
BBX 10 20 0 -6
BITMAP
0000
0000
0E00
1000
1000
1000
1000
1000
1000
6000
1000
1000
1000
1000
1000
1000
1000
0E00
0000
0000
ENDCHAR
STARTCHAR VERTICAL LINE
ENCODING 124
SWIDTH 360 0
DWIDTH 10 0
BBX 10 20 0 -6
BITMAP
0000
0000
0000
0800
0800
0800
0800
0800
0800
0800
0800
0800
0800
0800
0800
0800
0800
0000
0000
0000
ENDCHAR
STARTCHAR RIGHT CURLY BRACKET
ENCODING 125
SWIDTH 360 0
DWIDTH 10 0
BBX 10 20 0 -6
BITMAP
0000
0000
7000
0800
0800
0800
0800
0800
0800
0600
0800
0800
0800
0800
0800
0800
0800
7000
0000
0000
ENDCHAR
STARTCHAR TILDE
ENCODING 126
SWIDTH 360 0
DWIDTH 10 0
BBX 10 20 0 -6
BITMAP
0000
0000
0000
0000
0000
0000
0000
0000
3000
4900
0600
0000
0000
0000
0000
0000
0000
0000
0000
0000
ENDCHAR
STARTCHAR NO-BREAK SPACE
ENCODING 160
SWIDTH 360 0
DWIDTH 10 0
BBX 10 20 0 -6
BITMAP
0000
0000
0000
0000
0000
0000
0000
0000
0000
0000
0000
0000
0000
0000
0000
0000
0000
0000
0000
0000
ENDCHAR
STARTCHAR INVERTED EXCLAMATION MARK
ENCODING 161
SWIDTH 360 0
DWIDTH 10 0
BBX 10 20 0 -6
BITMAP
0000
0000
0000
0000
0800
0800
0000
0000
0800
0800
0800
0800
0800
0800
0000
0000
0000
0000
0000
0000
ENDCHAR
STARTCHAR CENT SIGN
ENCODING 162
SWIDTH 360 0
DWIDTH 10 0
BBX 10 20 0 -6
BITMAP
0000
0000
0000
0000
0000
0800
0800
3E00
4900
4800
4800
4800
4900
3E00
0800
0800
0000
0000
0000
0000
ENDCHAR
STARTCHAR POUND SIGN
ENCODING 163
SWIDTH 360 0
DWIDTH 10 0
BBX 10 20 0 -6
BITMAP
0000
0000
0000
0000
0000
0E00
1100
1000
1000
7E00
1000
1000
1000
7F00
0000
0000
0000
0000
0000
0000
ENDCHAR
STARTCHAR CURRENCY SIGN
ENCODING 164
SWIDTH 360 0
DWIDTH 10 0
BBX 10 20 0 -6
BITMAP
0000
0000
0000
0000
0000
0000
0000
4100
3E00
2200
2200
2200
3E00
4100
0000
0000
0000
0000
0000
0000
ENDCHAR
STARTCHAR YEN SIGN
ENCODING 165
SWIDTH 360 0
DWIDTH 10 0
BBX 10 20 0 -6
BITMAP
0000
0000
0000
0000
0000
4100
2200
1400
0800
3E00
0800
3E00
0800
0800
0000
0000
0000
0000
0000
0000
ENDCHAR
STARTCHAR BROKEN BAR
ENCODING 166
SWIDTH 360 0
DWIDTH 10 0
BBX 10 20 0 -6
BITMAP
0000
0000
0000
0000
0800
0800
0800
0800
0000
0000
0000
0800
0800
0800
0800
0000
0000
0000
0000
0000
ENDCHAR
STARTCHAR SECTION SIGN
ENCODING 167
SWIDTH 360 0
DWIDTH 10 0
BBX 10 20 0 -6
BITMAP
0000
0000
0000
0000
3C00
4200
4000
3800
4400
4200
2200
1C00
0200
4200
3C00
0000
0000
0000
0000
0000
ENDCHAR
STARTCHAR DIAERESIS
ENCODING 168
SWIDTH 360 0
DWIDTH 10 0
BBX 10 20 0 -6
BITMAP
0000
0000
2200
2200
0000
0000
0000
0000
0000
0000
0000
0000
0000
0000
0000
0000
0000
0000
0000
0000
ENDCHAR
STARTCHAR COPYRIGHT SIGN
ENCODING 169
SWIDTH 360 0
DWIDTH 10 0
BBX 10 20 0 -6
BITMAP
0000
0000
0000
0000
0000
0000
3F00
4080
4E80
5080
5080
4E80
4080
3F00
0000
0000
0000
0000
0000
0000
ENDCHAR
STARTCHAR FEMININE ORDINAL INDICATOR
ENCODING 170
SWIDTH 360 0
DWIDTH 10 0
BBX 10 20 0 -6
BITMAP
0000
0000
0000
0000
0000
3C00
0200
3E00
4200
4200
3E00
0000
7E00
0000
0000
0000
0000
0000
0000
0000
ENDCHAR
STARTCHAR LEFT-POINTING DOUBLE ANGLE QUOTATION MARK
ENCODING 171
SWIDTH 360 0
DWIDTH 10 0
BBX 10 20 0 -6
BITMAP
0000
0000
0000
0000
0000
0000
0000
0900
1200
2400
4800
2400
1200
0900
0000
0000
0000
0000
0000
0000
ENDCHAR
STARTCHAR NOT SIGN
ENCODING 172
SWIDTH 360 0
DWIDTH 10 0
BBX 10 20 0 -6
BITMAP
0000
0000
0000
0000
0000
0000
0000
0000
7F00
0100
0100
0100
0000
0000
0000
0000
0000
0000
0000
0000
ENDCHAR
STARTCHAR SOFT HYPHEN
ENCODING 173
SWIDTH 360 0
DWIDTH 10 0
BBX 10 20 0 -6
BITMAP
0000
0000
0000
0000
0000
0000
0000
0000
0000
7F00
0000
0000
0000
0000
0000
0000
0000
0000
0000
0000
ENDCHAR
STARTCHAR REGISTERED SIGN
ENCODING 174
SWIDTH 360 0
DWIDTH 10 0
BBX 10 20 0 -6
BITMAP
0000
0000
0000
0000
0000
0000
3F00
4080
5C80
5280
5C80
5280
4080
3F00
0000
0000
0000
0000
0000
0000
ENDCHAR
STARTCHAR MACRON
ENCODING 175
SWIDTH 360 0
DWIDTH 10 0
BBX 10 20 0 -6
BITMAP
0000
0000
0000
7F00
0000
0000
0000
0000
0000
0000
0000
0000
0000
0000
0000
0000
0000
0000
0000
0000
ENDCHAR
STARTCHAR DEGREE SIGN
ENCODING 176
SWIDTH 360 0
DWIDTH 10 0
BBX 10 20 0 -6
BITMAP
0000
0000
1800
2400
2400
1800
0000
0000
0000
0000
0000
0000
0000
0000
0000
0000
0000
0000
0000
0000
ENDCHAR
STARTCHAR PLUS-MINUS SIGN
ENCODING 177
SWIDTH 360 0
DWIDTH 10 0
BBX 10 20 0 -6
BITMAP
0000
0000
0000
0000
0000
0000
0000
0800
0800
3E00
0800
0800
0000
3E00
0000
0000
0000
0000
0000
0000
ENDCHAR
STARTCHAR SUPERSCRIPT TWO
ENCODING 178
SWIDTH 360 0
DWIDTH 10 0
BBX 10 20 0 -6
BITMAP
0000
0000
0000
0000
1800
2400
0800
1000
3C00
0000
0000
0000
0000
0000
0000
0000
0000
0000
0000
0000
ENDCHAR
STARTCHAR SUPERSCRIPT THREE
ENCODING 179
SWIDTH 360 0
DWIDTH 10 0
BBX 10 20 0 -6
BITMAP
0000
0000
0000
0000
3800
0400
1800
0400
3800
0000
0000
0000
0000
0000
0000
0000
0000
0000
0000
0000
ENDCHAR
STARTCHAR ACUTE ACCENT
ENCODING 180
SWIDTH 360 0
DWIDTH 10 0
BBX 10 20 0 -6
BITMAP
0000
0000
0000
0400
0800
1000
0000
0000
0000
0000
0000
0000
0000
0000
0000
0000
0000
0000
0000
0000
ENDCHAR
STARTCHAR MICRO SIGN
ENCODING 181
SWIDTH 360 0
DWIDTH 10 0
BBX 10 20 0 -6
BITMAP
0000
0000
0000
0000
0000
0000
0000
4100
4100
4100
4100
4100
4300
7D00
4000
4000
4000
4000
0000
0000
ENDCHAR
STARTCHAR PILCROW SIGN
ENCODING 182
SWIDTH 360 0
DWIDTH 10 0
BBX 10 20 0 -6
BITMAP
0000
0000
0000
0000
0000
3F00
4900
4900
4900
3900
0900
0900
0900
0900
0000
0000
0000
0000
0000
0000
ENDCHAR
STARTCHAR MIDDLE DOT
ENCODING 183
SWIDTH 360 0
DWIDTH 10 0
BBX 10 20 0 -6
BITMAP
0000
0000
0000
0000
0000
0000
0000
0000
0000
1800
1800
0000
0000
0000
0000
0000
0000
0000
0000
0000
ENDCHAR
STARTCHAR CEDILLA
ENCODING 184
SWIDTH 360 0
DWIDTH 10 0
BBX 10 20 0 -6
BITMAP
0000
0000
0000
0000
0000
0000
0000
0000
0000
0000
0000
0000
0000
0000
0800
0400
1800
0000
0000
0000
ENDCHAR
STARTCHAR SUPERSCRIPT ONE
ENCODING 185
SWIDTH 360 0
DWIDTH 10 0
BBX 10 20 0 -6
BITMAP
0000
0000
0000
0000
0800
1800
0800
0800
1C00
0000
0000
0000
0000
0000
0000
0000
0000
0000
0000
0000
ENDCHAR
STARTCHAR MASCULINE ORDINAL INDICATOR
ENCODING 186
SWIDTH 360 0
DWIDTH 10 0
BBX 10 20 0 -6
BITMAP
0000
0000
0000
0000
1C00
2200
2200
2200
1C00
0000
3E00
0000
0000
0000
0000
0000
0000
0000
0000
0000
ENDCHAR
STARTCHAR RIGHT-POINTING DOUBLE ANGLE QUOTATION MARK
ENCODING 187
SWIDTH 360 0
DWIDTH 10 0
BBX 10 20 0 -6
BITMAP
0000
0000
0000
0000
0000
0000
0000
4800
2400
1200
0900
1200
2400
4800
0000
0000
0000
0000
0000
0000
ENDCHAR
STARTCHAR VULGAR FRACTION ONE QUARTER
ENCODING 188
SWIDTH 360 0
DWIDTH 10 0
BBX 10 20 0 -6
BITMAP
0000
0000
0000
0000
2000
6000
2000
2100
7200
0400
0900
1300
2500
4F00
0100
0100
0000
0000
0000
0000
ENDCHAR
STARTCHAR VULGAR FRACTION ONE HALF
ENCODING 189
SWIDTH 360 0
DWIDTH 10 0
BBX 10 20 0 -6
BITMAP
0000
0000
0000
0000
2000
6000
2000
2100
7200
0400
0800
1600
2900
4200
0400
0F00
0000
0000
0000
0000
ENDCHAR
STARTCHAR VULGAR FRACTION THREE QUARTERS
ENCODING 190
SWIDTH 360 0
DWIDTH 10 0
BBX 10 20 0 -6
BITMAP
0000
0000
0000
0000
7000
0800
3000
0900
7200
0400
0900
1300
2500
4F00
0100
0100
0000
0000
0000
0000
ENDCHAR
STARTCHAR INVERTED QUESTION MARK
ENCODING 191
SWIDTH 360 0
DWIDTH 10 0
BBX 10 20 0 -6
BITMAP
0000
0000
0000
0000
0800
0800
0000
0000
0800
1000
2000
4000
4200
3C00
0000
0000
0000
0000
0000
0000
ENDCHAR
STARTCHAR LATIN CAPITAL LETTER A WITH GRAVE
ENCODING 192
SWIDTH 360 0
DWIDTH 10 0
BBX 10 20 0 -6
BITMAP
0000
0000
1000
0800
0000
3E00
4100
4100
4100
4100
7F00
4100
4100
4100
0000
0000
0000
0000
0000
0000
ENDCHAR
STARTCHAR LATIN CAPITAL LETTER A WITH ACUTE
ENCODING 193
SWIDTH 360 0
DWIDTH 10 0
BBX 10 20 0 -6
BITMAP
0000
0000
0400
0800
0000
3E00
4100
4100
4100
4100
7F00
4100
4100
4100
0000
0000
0000
0000
0000
0000
ENDCHAR
STARTCHAR LATIN CAPITAL LETTER A WITH CIRCUMFLEX
ENCODING 194
SWIDTH 360 0
DWIDTH 10 0
BBX 10 20 0 -6
BITMAP
0000
0000
0800
1400
0000
3E00
4100
4100
4100
4100
7F00
4100
4100
4100
0000
0000
0000
0000
0000
0000
ENDCHAR
STARTCHAR LATIN CAPITAL LETTER A WITH TILDE
ENCODING 195
SWIDTH 360 0
DWIDTH 10 0
BBX 10 20 0 -6
BITMAP
0000
0000
1A00
2400
0000
3E00
4100
4100
4100
4100
7F00
4100
4100
4100
0000
0000
0000
0000
0000
0000
ENDCHAR
STARTCHAR LATIN CAPITAL LETTER A WITH DIAERESIS
ENCODING 196
SWIDTH 360 0
DWIDTH 10 0
BBX 10 20 0 -6
BITMAP
0000
0000
2200
2200
0000
3E00
4100
4100
4100
4100
7F00
4100
4100
4100
0000
0000
0000
0000
0000
0000
ENDCHAR
STARTCHAR LATIN CAPITAL LETTER A WITH RING ABOVE
ENCODING 197
SWIDTH 360 0
DWIDTH 10 0
BBX 10 20 0 -6
BITMAP
0000
0800
1400
0800
0000
3E00
4100
4100
4100
4100
7F00
4100
4100
4100
0000
0000
0000
0000
0000
0000
ENDCHAR
STARTCHAR LATIN CAPITAL LETTER AE
ENCODING 198
SWIDTH 360 0
DWIDTH 10 0
BBX 10 20 0 -6
BITMAP
0000
0000
0000
0000
0000
3F00
4800
4800
4800
7F00
4800
4800
4800
4F00
0000
0000
0000
0000
0000
0000
ENDCHAR
STARTCHAR LATIN CAPITAL LETTER C WITH CEDILLA
ENCODING 199
SWIDTH 360 0
DWIDTH 10 0
BBX 10 20 0 -6
BITMAP
0000
0000
0000
0000
0000
1E00
2100
4000
4000
4000
4000
4000
2100
1E00
0800
1000
0000
0000
0000
0000
ENDCHAR
STARTCHAR LATIN CAPITAL LETTER E WITH GRAVE
ENCODING 200
SWIDTH 360 0
DWIDTH 10 0
BBX 10 20 0 -6
BITMAP
0000
0000
1000
0800
0000
7F00
4000
4000
4000
7C00
4000
4000
4000
7F00
0000
0000
0000
0000
0000
0000
ENDCHAR
STARTCHAR LATIN CAPITAL LETTER E WITH ACUTE
ENCODING 201
SWIDTH 360 0
DWIDTH 10 0
BBX 10 20 0 -6
BITMAP
0000
0000
0800
1000
0000
7F00
4000
4000
4000
7C00
4000
4000
4000
7F00
0000
0000
0000
0000
0000
0000
ENDCHAR
STARTCHAR LATIN CAPITAL LETTER E WITH CIRCUMFLEX
ENCODING 202
SWIDTH 360 0
DWIDTH 10 0
BBX 10 20 0 -6
BITMAP
0000
0000
1800
2400
0000
7F00
4000
4000
4000
7C00
4000
4000
4000
7F00
0000
0000
0000
0000
0000
0000
ENDCHAR
STARTCHAR LATIN CAPITAL LETTER E WITH DIAERESIS
ENCODING 203
SWIDTH 360 0
DWIDTH 10 0
BBX 10 20 0 -6
BITMAP
0000
0000
2200
2200
0000
7F00
4000
4000
4000
7C00
4000
4000
4000
7F00
0000
0000
0000
0000
0000
0000
ENDCHAR
STARTCHAR LATIN CAPITAL LETTER I WITH GRAVE
ENCODING 204
SWIDTH 360 0
DWIDTH 10 0
BBX 10 20 0 -6
BITMAP
0000
0000
1000
0800
0000
7F00
0800
0800
0800
0800
0800
0800
0800
7F00
0000
0000
0000
0000
0000
0000
ENDCHAR
STARTCHAR LATIN CAPITAL LETTER I WITH ACUTE
ENCODING 205
SWIDTH 360 0
DWIDTH 10 0
BBX 10 20 0 -6
BITMAP
0000
0000
0400
0800
0000
7F00
0800
0800
0800
0800
0800
0800
0800
7F00
0000
0000
0000
0000
0000
0000
ENDCHAR
STARTCHAR LATIN CAPITAL LETTER I WITH CIRCUMFLEX
ENCODING 206
SWIDTH 360 0
DWIDTH 10 0
BBX 10 20 0 -6
BITMAP
0000
0000
0800
1400
0000
7F00
0800
0800
0800
0800
0800
0800
0800
7F00
0000
0000
0000
0000
0000
0000
ENDCHAR
STARTCHAR LATIN CAPITAL LETTER I WITH DIAERESIS
ENCODING 207
SWIDTH 360 0
DWIDTH 10 0
BBX 10 20 0 -6
BITMAP
0000
0000
2200
2200
0000
7F00
0800
0800
0800
0800
0800
0800
0800
7F00
0000
0000
0000
0000
0000
0000
ENDCHAR
STARTCHAR LATIN CAPITAL LETTER ETH
ENCODING 208
SWIDTH 360 0
DWIDTH 10 0
BBX 10 20 0 -6
BITMAP
0000
0000
0000
0000
0000
7C00
4200
4100
4100
F100
4100
4100
4200
7C00
0000
0000
0000
0000
0000
0000
ENDCHAR
STARTCHAR LATIN CAPITAL LETTER N WITH TILDE
ENCODING 209
SWIDTH 360 0
DWIDTH 10 0
BBX 10 20 0 -6
BITMAP
0000
0000
1A00
2400
0000
4100
6100
5100
4900
4500
4300
4100
4100
4100
0000
0000
0000
0000
0000
0000
ENDCHAR
STARTCHAR LATIN CAPITAL LETTER O WITH GRAVE
ENCODING 210
SWIDTH 360 0
DWIDTH 10 0
BBX 10 20 0 -6
BITMAP
0000
0000
1000
0800
0000
3E00
4100
4100
4100
4100
4100
4100
4100
3E00
0000
0000
0000
0000
0000
0000
ENDCHAR
STARTCHAR LATIN CAPITAL LETTER O WITH ACUTE
ENCODING 211
SWIDTH 360 0
DWIDTH 10 0
BBX 10 20 0 -6
BITMAP
0000
0000
0400
0800
0000
3E00
4100
4100
4100
4100
4100
4100
4100
3E00
0000
0000
0000
0000
0000
0000
ENDCHAR
STARTCHAR LATIN CAPITAL LETTER O WITH CIRCUMFLEX
ENCODING 212
SWIDTH 360 0
DWIDTH 10 0
BBX 10 20 0 -6
BITMAP
0000
0000
0800
1400
0000
3E00
4100
4100
4100
4100
4100
4100
4100
3E00
0000
0000
0000
0000
0000
0000
ENDCHAR
STARTCHAR LATIN CAPITAL LETTER O WITH TILDE
ENCODING 213
SWIDTH 360 0
DWIDTH 10 0
BBX 10 20 0 -6
BITMAP
0000
0000
1A00
2400
0000
3E00
4100
4100
4100
4100
4100
4100
4100
3E00
0000
0000
0000
0000
0000
0000
ENDCHAR
STARTCHAR LATIN CAPITAL LETTER O WITH DIAERESIS
ENCODING 214
SWIDTH 360 0
DWIDTH 10 0
BBX 10 20 0 -6
BITMAP
0000
0000
2200
2200
0000
3E00
4100
4100
4100
4100
4100
4100
4100
3E00
0000
0000
0000
0000
0000
0000
ENDCHAR
STARTCHAR MULTIPLICATION SIGN
ENCODING 215
SWIDTH 360 0
DWIDTH 10 0
BBX 10 20 0 -6
BITMAP
0000
0000
0000
0000
0000
0000
0000
0000
2200
1400
0800
1400
2200
0000
0000
0000
0000
0000
0000
0000
ENDCHAR
STARTCHAR LATIN CAPITAL LETTER O WITH STROKE
ENCODING 216
SWIDTH 360 0
DWIDTH 10 0
BBX 10 20 0 -6
BITMAP
0000
0000
0000
0000
0000
3E80
4100
4300
4500
4900
5100
6100
4100
BE00
0000
0000
0000
0000
0000
0000
ENDCHAR
STARTCHAR LATIN CAPITAL LETTER U WITH GRAVE
ENCODING 217
SWIDTH 360 0
DWIDTH 10 0
BBX 10 20 0 -6
BITMAP
0000
0000
1000
0800
0000
4100
4100
4100
4100
4100
4100
4100
4100
3E00
0000
0000
0000
0000
0000
0000
ENDCHAR
STARTCHAR LATIN CAPITAL LETTER U WITH ACUTE
ENCODING 218
SWIDTH 360 0
DWIDTH 10 0
BBX 10 20 0 -6
BITMAP
0000
0000
0400
0800
0000
4100
4100
4100
4100
4100
4100
4100
4100
3E00
0000
0000
0000
0000
0000
0000
ENDCHAR
STARTCHAR LATIN CAPITAL LETTER U WITH CIRCUMFLEX
ENCODING 219
SWIDTH 360 0
DWIDTH 10 0
BBX 10 20 0 -6
BITMAP
0000
0000
0800
1400
0000
4100
4100
4100
4100
4100
4100
4100
4100
3E00
0000
0000
0000
0000
0000
0000
ENDCHAR
STARTCHAR LATIN CAPITAL LETTER U WITH DIAERESIS
ENCODING 220
SWIDTH 360 0
DWIDTH 10 0
BBX 10 20 0 -6
BITMAP
0000
0000
2200
2200
0000
4100
4100
4100
4100
4100
4100
4100
4100
3E00
0000
0000
0000
0000
0000
0000
ENDCHAR
STARTCHAR LATIN CAPITAL LETTER Y WITH ACUTE
ENCODING 221
SWIDTH 360 0
DWIDTH 10 0
BBX 10 20 0 -6
BITMAP
0000
0000
0400
0800
0000
4100
4100
2200
1400
0800
0800
0800
0800
0800
0000
0000
0000
0000
0000
0000
ENDCHAR
STARTCHAR LATIN CAPITAL LETTER THORN
ENCODING 222
SWIDTH 360 0
DWIDTH 10 0
BBX 10 20 0 -6
BITMAP
0000
0000
0000
0000
0000
4000
4000
7C00
4200
4200
4200
7C00
4000
4000
0000
0000
0000
0000
0000
0000
ENDCHAR
STARTCHAR LATIN SMALL LETTER SHARP S
ENCODING 223
SWIDTH 360 0
DWIDTH 10 0
BBX 10 20 0 -6
BITMAP
0000
0000
0000
0000
0000
3800
4400
4400
4800
4400
4200
4100
4100
5E00
4000
4000
0000
0000
0000
0000
ENDCHAR
STARTCHAR LATIN SMALL LETTER A WITH GRAVE
ENCODING 224
SWIDTH 360 0
DWIDTH 10 0
BBX 10 20 0 -6
BITMAP
0000
0000
0000
0000
0800
0400
0000
3E00
0100
0100
3F00
4100
4300
3D00
0000
0000
0000
0000
0000
0000
ENDCHAR
STARTCHAR LATIN SMALL LETTER A WITH ACUTE
ENCODING 225
SWIDTH 360 0
DWIDTH 10 0
BBX 10 20 0 -6
BITMAP
0000
0000
0000
0000
0400
0800
0000
3E00
0100
0100
3F00
4100
4300
3D00
0000
0000
0000
0000
0000
0000
ENDCHAR
STARTCHAR LATIN SMALL LETTER A WITH CIRCUMFLEX
ENCODING 226
SWIDTH 360 0
DWIDTH 10 0
BBX 10 20 0 -6
BITMAP
0000
0000
0000
0000
0800
1400
0000
3E00
0100
0100
3F00
4100
4300
3D00
0000
0000
0000
0000
0000
0000
ENDCHAR
STARTCHAR LATIN SMALL LETTER A WITH TILDE
ENCODING 227
SWIDTH 360 0
DWIDTH 10 0
BBX 10 20 0 -6
BITMAP
0000
0000
0000
0000
1A00
2400
0000
3E00
0100
0100
3F00
4100
4300
3D00
0000
0000
0000
0000
0000
0000
ENDCHAR
STARTCHAR LATIN SMALL LETTER A WITH DIAERESIS
ENCODING 228
SWIDTH 360 0
DWIDTH 10 0
BBX 10 20 0 -6
BITMAP
0000
0000
0000
0000
2200
2200
0000
3E00
0100
0100
3F00
4100
4300
3D00
0000
0000
0000
0000
0000
0000
ENDCHAR
STARTCHAR LATIN SMALL LETTER A WITH RING ABOVE
ENCODING 229
SWIDTH 360 0
DWIDTH 10 0
BBX 10 20 0 -6
BITMAP
0000
0000
0000
0C00
1200
0C00
0000
3E00
0100
0100
3F00
4100
4300
3D00
0000
0000
0000
0000
0000
0000
ENDCHAR
STARTCHAR LATIN SMALL LETTER AE
ENCODING 230
SWIDTH 360 0
DWIDTH 10 0
BBX 10 20 0 -6
BITMAP
0000
0000
0000
0000
0000
0000
0000
3E00
0900
0900
3F00
4800
4800
3700
0000
0000
0000
0000
0000
0000
ENDCHAR
STARTCHAR LATIN SMALL LETTER C WITH CEDILLA
ENCODING 231
SWIDTH 360 0
DWIDTH 10 0
BBX 10 20 0 -6
BITMAP
0000
0000
0000
0000
0000
0000
0000
3E00
4100
4000
4000
4000
4100
3E00
0800
1000
0000
0000
0000
0000
ENDCHAR
STARTCHAR LATIN SMALL LETTER E WITH GRAVE
ENCODING 232
SWIDTH 360 0
DWIDTH 10 0
BBX 10 20 0 -6
BITMAP
0000
0000
0000
0000
0000
1000
0800
3E00
4100
4100
7F00
4000
4000
3F00
0000
0000
0000
0000
0000
0000
ENDCHAR
STARTCHAR LATIN SMALL LETTER E WITH ACUTE
ENCODING 233
SWIDTH 360 0
DWIDTH 10 0
BBX 10 20 0 -6
BITMAP
0000
0000
0000
0000
0400
0800
0000
3E00
4100
4100
7F00
4000
4000
3F00
0000
0000
0000
0000
0000
0000
ENDCHAR
STARTCHAR LATIN SMALL LETTER E WITH CIRCUMFLEX
ENCODING 234
SWIDTH 360 0
DWIDTH 10 0
BBX 10 20 0 -6
BITMAP
0000
0000
0000
0000
0800
1400
0000
3E00
4100
4100
7F00
4000
4000
3F00
0000
0000
0000
0000
0000
0000
ENDCHAR
STARTCHAR LATIN SMALL LETTER E WITH DIAERESIS
ENCODING 235
SWIDTH 360 0
DWIDTH 10 0
BBX 10 20 0 -6
BITMAP
0000
0000
0000
0000
2200
2200
0000
3E00
4100
4100
7F00
4000
4000
3F00
0000
0000
0000
0000
0000
0000
ENDCHAR
STARTCHAR LATIN SMALL LETTER I WITH GRAVE
ENCODING 236
SWIDTH 360 0
DWIDTH 10 0
BBX 10 20 0 -6
BITMAP
0000
0000
0000
0000
1000
0800
0000
7800
0800
0800
0800
0800
0800
7F00
0000
0000
0000
0000
0000
0000
ENDCHAR
STARTCHAR LATIN SMALL LETTER I WITH ACUTE
ENCODING 237
SWIDTH 360 0
DWIDTH 10 0
BBX 10 20 0 -6
BITMAP
0000
0000
0000
0000
0400
0800
0000
7800
0800
0800
0800
0800
0800
7F00
0000
0000
0000
0000
0000
0000
ENDCHAR
STARTCHAR LATIN SMALL LETTER I WITH CIRCUMFLEX
ENCODING 238
SWIDTH 360 0
DWIDTH 10 0
BBX 10 20 0 -6
BITMAP
0000
0000
0000
0000
0800
1400
0000
7800
0800
0800
0800
0800
0800
7F00
0000
0000
0000
0000
0000
0000
ENDCHAR
STARTCHAR LATIN SMALL LETTER I WITH DIAERESIS
ENCODING 239
SWIDTH 360 0
DWIDTH 10 0
BBX 10 20 0 -6
BITMAP
0000
0000
0000
0000
2200
2200
0000
7800
0800
0800
0800
0800
0800
7F00
0000
0000
0000
0000
0000
0000
ENDCHAR
STARTCHAR LATIN SMALL LETTER ETH
ENCODING 240
SWIDTH 360 0
DWIDTH 10 0
BBX 10 20 0 -6
BITMAP
0000
0000
0000
1400
0800
1400
0000
3E00
4100
4100
4100
4100
4100
3E00
0000
0000
0000
0000
0000
0000
ENDCHAR
STARTCHAR LATIN SMALL LETTER N WITH TILDE
ENCODING 241
SWIDTH 360 0
DWIDTH 10 0
BBX 10 20 0 -6
BITMAP
0000
0000
0000
0000
1A00
2400
0000
4E00
5100
6100
4100
4100
4100
4100
0000
0000
0000
0000
0000
0000
ENDCHAR
STARTCHAR LATIN SMALL LETTER O WITH GRAVE
ENCODING 242
SWIDTH 360 0
DWIDTH 10 0
BBX 10 20 0 -6
BITMAP
0000
0000
0000
0000
1000
0800
0000
3E00
4100
4100
4100
4100
4100
3E00
0000
0000
0000
0000
0000
0000
ENDCHAR
STARTCHAR LATIN SMALL LETTER O WITH ACUTE
ENCODING 243
SWIDTH 360 0
DWIDTH 10 0
BBX 10 20 0 -6
BITMAP
0000
0000
0000
0000
0400
0800
0000
3E00
4100
4100
4100
4100
4100
3E00
0000
0000
0000
0000
0000
0000
ENDCHAR
STARTCHAR LATIN SMALL LETTER O WITH CIRCUMFLEX
ENCODING 244
SWIDTH 360 0
DWIDTH 10 0
BBX 10 20 0 -6
BITMAP
0000
0000
0000
0000
0800
1400
0000
3E00
4100
4100
4100
4100
4100
3E00
0000
0000
0000
0000
0000
0000
ENDCHAR
STARTCHAR LATIN SMALL LETTER O WITH TILDE
ENCODING 245
SWIDTH 360 0
DWIDTH 10 0
BBX 10 20 0 -6
BITMAP
0000
0000
0000
0000
1A00
2400
0000
3E00
4100
4100
4100
4100
4100
3E00
0000
0000
0000
0000
0000
0000
ENDCHAR
STARTCHAR LATIN SMALL LETTER O WITH DIAERESIS
ENCODING 246
SWIDTH 360 0
DWIDTH 10 0
BBX 10 20 0 -6
BITMAP
0000
0000
0000
0000
2200
2200
0000
3E00
4100
4100
4100
4100
4100
3E00
0000
0000
0000
0000
0000
0000
ENDCHAR
STARTCHAR DIVISION SIGN
ENCODING 247
SWIDTH 360 0
DWIDTH 10 0
BBX 10 20 0 -6
BITMAP
0000
0000
0000
0000
0000
0000
0800
0800
0000
7F00
0000
0800
0800
0000
0000
0000
0000
0000
0000
0000
ENDCHAR
STARTCHAR LATIN SMALL LETTER O WITH STROKE
ENCODING 248
SWIDTH 360 0
DWIDTH 10 0
BBX 10 20 0 -6
BITMAP
0000
0000
0000
0000
0000
0000
0080
3F00
4300
4500
4900
5100
6100
7E00
8000
0000
0000
0000
0000
0000
ENDCHAR
STARTCHAR LATIN SMALL LETTER U WITH GRAVE
ENCODING 249
SWIDTH 360 0
DWIDTH 10 0
BBX 10 20 0 -6
BITMAP
0000
0000
0000
0000
1000
0800
0000
4100
4100
4100
4100
4300
4500
3900
0000
0000
0000
0000
0000
0000
ENDCHAR
STARTCHAR LATIN SMALL LETTER U WITH ACUTE
ENCODING 250
SWIDTH 360 0
DWIDTH 10 0
BBX 10 20 0 -6
BITMAP
0000
0000
0000
0000
0400
0800
0000
4100
4100
4100
4100
4300
4500
3900
0000
0000
0000
0000
0000
0000
ENDCHAR
STARTCHAR LATIN SMALL LETTER U WITH CIRCUMFLEX
ENCODING 251
SWIDTH 360 0
DWIDTH 10 0
BBX 10 20 0 -6
BITMAP
0000
0000
0000
0000
0800
1400
0000
4100
4100
4100
4100
4300
4500
3900
0000
0000
0000
0000
0000
0000
ENDCHAR
STARTCHAR LATIN SMALL LETTER U WITH DIAERESIS
ENCODING 252
SWIDTH 360 0
DWIDTH 10 0
BBX 10 20 0 -6
BITMAP
0000
0000
0000
0000
2200
2200
0000
4100
4100
4100
4100
4300
4500
3900
0000
0000
0000
0000
0000
0000
ENDCHAR
STARTCHAR LATIN SMALL LETTER Y WITH ACUTE
ENCODING 253
SWIDTH 360 0
DWIDTH 10 0
BBX 10 20 0 -6
BITMAP
0000
0000
0000
0000
0400
0800
0000
4100
4100
4100
4100
4100
4300
3D00
0100
0100
7E00
0000
0000
0000
ENDCHAR
STARTCHAR LATIN SMALL LETTER THORN
ENCODING 254
SWIDTH 360 0
DWIDTH 10 0
BBX 10 20 0 -6
BITMAP
0000
0000
0000
0000
0000
0000
4000
4000
7C00
4200
4200
4200
4200
7C00
4000
4000
0000
0000
0000
0000
ENDCHAR
STARTCHAR LATIN SMALL LETTER Y WITH DIAERESIS
ENCODING 255
SWIDTH 360 0
DWIDTH 10 0
BBX 10 20 0 -6
BITMAP
0000
0000
0000
0000
2200
2200
0000
4100
4100
4100
4100
4100
4300
3D00
0100
0100
7E00
0000
0000
0000
ENDCHAR
STARTCHAR LATIN CAPITAL LETTER O WITH MACRON
ENCODING 332
SWIDTH 360 0
DWIDTH 10 0
BBX 10 20 0 -6
BITMAP
0000
0000
3E00
0000
0000
3E00
4100
4100
4100
4100
4100
4100
4100
3E00
0000
0000
0000
0000
0000
0000
ENDCHAR
STARTCHAR LATIN SMALL LETTER O WITH MACRON
ENCODING 333
SWIDTH 360 0
DWIDTH 10 0
BBX 10 20 0 -6
BITMAP
0000
0000
0000
0000
3E00
0000
0000
3E00
4100
4100
4100
4100
4100
3E00
0000
0000
0000
0000
0000
0000
ENDCHAR
STARTCHAR HYPHEN
ENCODING 8208
SWIDTH 360 0
DWIDTH 10 0
BBX 10 20 0 -6
BITMAP
0000
0000
0000
0000
0000
0000
0000
0000
0000
3E00
0000
0000
0000
0000
0000
0000
0000
0000
0000
0000
ENDCHAR
STARTCHAR NON-BREAKING HYPHEN
ENCODING 8209
SWIDTH 360 0
DWIDTH 10 0
BBX 10 20 0 -6
BITMAP
0000
0000
0000
0000
0000
0000
0000
0000
0000
3E00
0000
0000
0000
0000
0000
0000
0000
0000
0000
0000
ENDCHAR
STARTCHAR FIGURE DASH
ENCODING 8210
SWIDTH 360 0
DWIDTH 10 0
BBX 10 20 0 -6
BITMAP
0000
0000
0000
0000
0000
0000
0000
0000
0000
7F00
0000
0000
0000
0000
0000
0000
0000
0000
0000
0000
ENDCHAR
STARTCHAR EN DASH
ENCODING 8211
SWIDTH 360 0
DWIDTH 10 0
BBX 10 20 0 -6
BITMAP
0000
0000
0000
0000
0000
0000
0000
0000
0000
7F00
0000
0000
0000
0000
0000
0000
0000
0000
0000
0000
ENDCHAR
STARTCHAR EM DASH
ENCODING 8212
SWIDTH 360 0
DWIDTH 10 0
BBX 10 20 0 -6
BITMAP
0000
0000
0000
0000
0000
0000
0000
0000
0000
7F80
0000
0000
0000
0000
0000
0000
0000
0000
0000
0000
ENDCHAR
STARTCHAR HORIZONTAL BAR
ENCODING 8213
SWIDTH 360 0
DWIDTH 10 0
BBX 10 20 0 -6
BITMAP
0000
0000
0000
0000
0000
0000
0000
0000
0000
FFC0
0000
0000
0000
0000
0000
0000
0000
0000
0000
0000
ENDCHAR
STARTCHAR DOUBLE VERTICAL LINE
ENCODING 8214
SWIDTH 360 0
DWIDTH 10 0
BBX 10 20 0 -6
BITMAP
0000
0000
0000
0000
0000
1400
1400
1400
1400
1400
1400
1400
1400
1400
0000
0000
0000
0000
0000
0000
ENDCHAR
STARTCHAR DOUBLE LOW LINE
ENCODING 8215
SWIDTH 360 0
DWIDTH 10 0
BBX 10 20 0 -6
BITMAP
0000
0000
0000
0000
0000
0000
0000
0000
0000
0000
0000
0000
0000
0000
0000
0000
0000
7F00
0000
7F00
ENDCHAR
STARTCHAR LEFT SINGLE QUOTATION MARK
ENCODING 8216
SWIDTH 360 0
DWIDTH 10 0
BBX 10 20 0 -6
BITMAP
0000
0400
0800
0800
0800
0000
0000
0000
0000
0000
0000
0000
0000
0000
0000
0000
0000
0000
0000
0000
ENDCHAR
STARTCHAR RIGHT SINGLE QUOTATION MARK
ENCODING 8217
SWIDTH 360 0
DWIDTH 10 0
BBX 10 20 0 -6
BITMAP
0000
0800
0800
0800
1000
0000
0000
0000
0000
0000
0000
0000
0000
0000
0000
0000
0000
0000
0000
0000
ENDCHAR
STARTCHAR SINGLE LOW-9 QUOTATION MARK
ENCODING 8218
SWIDTH 360 0
DWIDTH 10 0
BBX 10 20 0 -6
BITMAP
0000
0000
0000
0000
0000
0000
0000
0000
0000
0000
0000
0000
0800
0800
0800
1000
0000
0000
0000
0000
ENDCHAR
STARTCHAR SINGLE HIGH-REVERSED-9 QUOTATION MARK
ENCODING 8219
SWIDTH 360 0
DWIDTH 10 0
BBX 10 20 0 -6
BITMAP
0000
1000
1000
1000
0800
0000
0000
0000
0000
0000
0000
0000
0000
0000
0000
0000
0000
0000
0000
0000
ENDCHAR
STARTCHAR LEFT DOUBLE QUOTATION MARK
ENCODING 8220
SWIDTH 360 0
DWIDTH 10 0
BBX 10 20 0 -6
BITMAP
0000
1100
2200
2200
2200
0000
0000
0000
0000
0000
0000
0000
0000
0000
0000
0000
0000
0000
0000
0000
ENDCHAR
STARTCHAR RIGHT DOUBLE QUOTATION MARK
ENCODING 8221
SWIDTH 360 0
DWIDTH 10 0
BBX 10 20 0 -6
BITMAP
0000
1100
1100
1100
2200
0000
0000
0000
0000
0000
0000
0000
0000
0000
0000
0000
0000
0000
0000
0000
ENDCHAR
STARTCHAR DOUBLE LOW-9 QUOTATION MARK
ENCODING 8222
SWIDTH 360 0
DWIDTH 10 0
BBX 10 20 0 -6
BITMAP
0000
0000
0000
0000
0000
0000
0000
0000
0000
0000
0000
0000
2200
2200
2200
4400
0000
0000
0000
0000
ENDCHAR
STARTCHAR DOUBLE HIGH-REVERSED-9 QUOTATION MARK
ENCODING 8223
SWIDTH 360 0
DWIDTH 10 0
BBX 10 20 0 -6
BITMAP
0000
4400
4400
4400
2200
0000
0000
0000
0000
0000
0000
0000
0000
0000
0000
0000
0000
0000
0000
0000
ENDCHAR
STARTCHAR DAGGER
ENCODING 8224
SWIDTH 360 0
DWIDTH 10 0
BBX 10 20 0 -6
BITMAP
0000
0000
0000
0800
0800
7F00
0800
0800
0800
0800
0800
0800
0800
0800
0000
0000
0000
0000
0000
0000
ENDCHAR
STARTCHAR DOUBLE DAGGER
ENCODING 8225
SWIDTH 360 0
DWIDTH 10 0
BBX 10 20 0 -6
BITMAP
0000
0000
0000
0800
0800
7F00
0800
0800
0800
0800
0800
7F00
0800
0800
0000
0000
0000
0000
0000
0000
ENDCHAR
STARTCHAR BULLET
ENCODING 8226
SWIDTH 360 0
DWIDTH 10 0
BBX 10 20 0 -6
BITMAP
0000
0000
0000
0000
0000
0000
0000
0000
0C00
1E00
1E00
0C00
0000
0000
0000
0000
0000
0000
0000
0000
ENDCHAR
STARTCHAR HORIZONTAL ELLIPSIS
ENCODING 8230
SWIDTH 360 0
DWIDTH 10 0
BBX 10 20 0 -6
BITMAP
0000
0000
0000
0000
0000
0000
0000
0000
0000
0000
0000
0000
4900
4900
0000
0000
0000
0000
0000
0000
ENDCHAR
STARTCHAR PER MILLE SIGN
ENCODING 8240
SWIDTH 360 0
DWIDTH 10 0
BBX 10 20 0 -6
BITMAP
0000
0000
0000
0000
6000
9000
9200
6400
0800
1000
2D80
5240
9240
0D80
0000
0000
0000
0000
0000
0000
ENDCHAR
STARTCHAR PRIME
ENCODING 8242
SWIDTH 360 0
DWIDTH 10 0
BBX 10 20 0 -6
BITMAP
0000
0800
0800
0800
0800
0800
0000
0000
0000
0000
0000
0000
0000
0000
0000
0000
0000
0000
0000
0000
ENDCHAR
STARTCHAR DOUBLE PRIME
ENCODING 8243
SWIDTH 360 0
DWIDTH 10 0
BBX 10 20 0 -6
BITMAP
0000
2200
2200
2200
2200
2200
0000
0000
0000
0000
0000
0000
0000
0000
0000
0000
0000
0000
0000
0000
ENDCHAR
STARTCHAR SINGLE LEFT-POINTING ANGLE QUOTATION MARK
ENCODING 8249
SWIDTH 360 0
DWIDTH 10 0
BBX 10 20 0 -6
BITMAP
0000
0000
0000
0000
0000
0200
0400
0800
1000
2000
1000
0800
0400
0200
0000
0000
0000
0000
0000
0000
ENDCHAR
STARTCHAR SINGLE RIGHT-POINTING ANGLE QUOTATION MARK
ENCODING 8250
SWIDTH 360 0
DWIDTH 10 0
BBX 10 20 0 -6
BITMAP
0000
0000
0000
0000
0000
2000
1000
0800
0400
0200
0400
0800
1000
2000
0000
0000
0000
0000
0000
0000
ENDCHAR
STARTCHAR DOUBLE EXCLAMATION MARK
ENCODING 8252
SWIDTH 360 0
DWIDTH 10 0
BBX 10 20 0 -6
BITMAP
0000
0000
0000
0000
2200
2200
2200
2200
2200
2200
0000
0000
2200
2200
0000
0000
0000
0000
0000
0000
ENDCHAR
STARTCHAR OVERLINE
ENCODING 8254
SWIDTH 360 0
DWIDTH 10 0
BBX 10 20 0 -6
BITMAP
0000
7F00
0000
0000
0000
0000
0000
0000
0000
0000
0000
0000
0000
0000
0000
0000
0000
0000
0000
0000
ENDCHAR
STARTCHAR EURO SIGN
ENCODING 8364
SWIDTH 360 0
DWIDTH 10 0
BBX 10 20 0 -6
BITMAP
0000
0000
0000
0000
0000
3E00
4100
4000
FC00
4000
F800
4000
4100
3E00
0000
0000
0000
0000
0000
0000
ENDCHAR
STARTCHAR TRADE MARK SIGN
ENCODING 8482
SWIDTH 360 0
DWIDTH 10 0
BBX 10 20 0 -6
BITMAP
0000
0000
0000
0000
0000
7500
2700
2500
2500
0000
0000
0000
0000
0000
0000
0000
0000
0000
0000
0000
ENDCHAR
STARTCHAR BOX DRAWINGS LIGHT HORIZONTAL
ENCODING 9472
SWIDTH 360 0
DWIDTH 10 0
BBX 10 20 0 -6
BITMAP
0000
0000
0000
0000
0000
0000
0000
0000
0000
FFC0
0000
0000
0000
0000
0000
0000
0000
0000
0000
0000
ENDCHAR
STARTCHAR BOX DRAWINGS HEAVY HORIZONTAL
ENCODING 9473
SWIDTH 360 0
DWIDTH 10 0
BBX 10 20 0 -6
BITMAP
0000
0000
0000
0000
0000
0000
0000
0000
0000
FFC0
FFC0
0000
0000
0000
0000
0000
0000
0000
0000
0000
ENDCHAR
STARTCHAR BOX DRAWINGS LIGHT VERTICAL
ENCODING 9474
SWIDTH 360 0
DWIDTH 10 0
BBX 10 20 0 -6
BITMAP
0800
0800
0800
0800
0800
0800
0800
0800
0800
0800
0800
0800
0800
0800
0800
0800
0800
0800
0800
0800
ENDCHAR
STARTCHAR BOX DRAWINGS HEAVY VERTICAL
ENCODING 9475
SWIDTH 360 0
DWIDTH 10 0
BBX 10 20 0 -6
BITMAP
0C00
0C00
0C00
0C00
0C00
0C00
0C00
0C00
0C00
0C00
0C00
0C00
0C00
0C00
0C00
0C00
0C00
0C00
0C00
0C00
ENDCHAR
STARTCHAR BOX DRAWINGS LIGHT HORIZONTAL
ENCODING 9476
SWIDTH 360 0
DWIDTH 10 0
BBX 10 20 0 -6
BITMAP
0000
0000
0000
0000
0000
0000
0000
0000
0000
DD80
0000
0000
0000
0000
0000
0000
0000
0000
0000
0000
ENDCHAR
STARTCHAR BOX DRAWINGS LIGHT HORIZONTAL
ENCODING 9477
SWIDTH 360 0
DWIDTH 10 0
BBX 10 20 0 -6
BITMAP
0000
0000
0000
0000
0000
0000
0000
0000
0000
DD80
DD80
0000
0000
0000
0000
0000
0000
0000
0000
0000
ENDCHAR
STARTCHAR BOX DRAWINGS LIGHT QUADRUPLE DASH HORIZONTAL
ENCODING 9480
SWIDTH 360 0
DWIDTH 10 0
BBX 10 20 0 -6
BITMAP
0000
0000
0000
0000
0000
0000
0000
0000
0000
D680
0000
0000
0000
0000
0000
0000
0000
0000
0000
0000
ENDCHAR
STARTCHAR BOX DRAWINGS HEAVY QUADRUPLE DASH HORIZONTAL
ENCODING 9481
SWIDTH 360 0
DWIDTH 10 0
BBX 10 20 0 -6
BITMAP
0000
0000
0000
0000
0000
0000
0000
0000
0000
D680
D680
0000
0000
0000
0000
0000
0000
0000
0000
0000
ENDCHAR
STARTCHAR BOX DRAWINGS LIGHT QUADRUPLE DASH VERTICAL
ENCODING 9482
SWIDTH 360 0
DWIDTH 10 0
BBX 10 20 0 -6
BITMAP
0800
0800
0800
0800
0000
0800
0800
0800
0800
0000
0800
0800
0800
0800
0000
0800
0800
0800
0800
0000
ENDCHAR
STARTCHAR BOX DRAWINGS HEAVY QUADRUPLE DASH VERTICAL
ENCODING 9483
SWIDTH 360 0
DWIDTH 10 0
BBX 10 20 0 -6
BITMAP
0C00
0C00
0C00
0C00
0000
0C00
0C00
0C00
0C00
0000
0C00
0C00
0C00
0C00
0000
0C00
0C00
0C00
0C00
0000
ENDCHAR
STARTCHAR BOX DRAWINGS LIGHT DOWN AND RIGHT
ENCODING 9484
SWIDTH 360 0
DWIDTH 10 0
BBX 10 20 0 -6
BITMAP
0000
0000
0000
0000
0000
0000
0000
0000
0000
0FC0
0800
0800
0800
0800
0800
0800
0800
0800
0800
0800
ENDCHAR
STARTCHAR BOX DRAWINGS DOWN LIGHT AND RIGHT HEAVY
ENCODING 9485
SWIDTH 360 0
DWIDTH 10 0
BBX 10 20 0 -6
BITMAP
0000
0000
0000
0000
0000
0000
0000
0000
0000
0FC0
0FC0
0800
0800
0800
0800
0800
0800
0800
0800
0800
ENDCHAR
STARTCHAR BOX DRAWINGS DOWN HEAVY AND RIGHT LIGHT
ENCODING 9486
SWIDTH 360 0
DWIDTH 10 0
BBX 10 20 0 -6
BITMAP
0000
0000
0000
0000
0000
0000
0000
0000
0000
0FC0
0C00
0C00
0C00
0C00
0C00
0C00
0C00
0C00
0C00
0C00
ENDCHAR
STARTCHAR BOX DRAWINGS HEAVY DOWN AND RIGHT
ENCODING 9487
SWIDTH 360 0
DWIDTH 10 0
BBX 10 20 0 -6
BITMAP
0000
0000
0000
0000
0000
0000
0000
0000
0000
0FC0
0FC0
0C00
0C00
0C00
0C00
0C00
0C00
0C00
0C00
0C00
ENDCHAR
STARTCHAR BOX DRAWINGS LIGHT DOWN AND LEFT
ENCODING 9488
SWIDTH 360 0
DWIDTH 10 0
BBX 10 20 0 -6
BITMAP
0000
0000
0000
0000
0000
0000
0000
0000
0000
F800
0800
0800
0800
0800
0800
0800
0800
0800
0800
0800
ENDCHAR
STARTCHAR BOX DRAWINGS DOWN LIGHT AND LEFT HEAVY
ENCODING 9489
SWIDTH 360 0
DWIDTH 10 0
BBX 10 20 0 -6
BITMAP
0000
0000
0000
0000
0000
0000
0000
0000
0000
F800
F800
0800
0800
0800
0800
0800
0800
0800
0800
0800
ENDCHAR
STARTCHAR BOX DRAWINGS DOWN HEAVY AND LEFT LIGHT
ENCODING 9490
SWIDTH 360 0
DWIDTH 10 0
BBX 10 20 0 -6
BITMAP
0000
0000
0000
0000
0000
0000
0000
0000
0000
FC00
0C00
0C00
0C00
0C00
0C00
0C00
0C00
0C00
0C00
0C00
ENDCHAR
STARTCHAR BOX DRAWINGS HEAVY DOWN AND LEFT
ENCODING 9491
SWIDTH 360 0
DWIDTH 10 0
BBX 10 20 0 -6
BITMAP
0000
0000
0000
0000
0000
0000
0000
0000
0000
FC00
FC00
0C00
0C00
0C00
0C00
0C00
0C00
0C00
0C00
0C00
ENDCHAR
STARTCHAR BOX DRAWINGS LIGHT UP AND RIGHT
ENCODING 9492
SWIDTH 360 0
DWIDTH 10 0
BBX 10 20 0 -6
BITMAP
0800
0800
0800
0800
0800
0800
0800
0800
0800
0FC0
0000
0000
0000
0000
0000
0000
0000
0000
0000
0000
ENDCHAR
STARTCHAR BOX DRAWINGS UP LIGHT AND RIGHT HEAVY
ENCODING 9493
SWIDTH 360 0
DWIDTH 10 0
BBX 10 20 0 -6
BITMAP
0800
0800
0800
0800
0800
0800
0800
0800
0800
0FC0
0FC0
0000
0000
0000
0000
0000
0000
0000
0000
0000
ENDCHAR
STARTCHAR BOX DRAWINGS UP HEAVY AND RIGHT LIGHT
ENCODING 9494
SWIDTH 360 0
DWIDTH 10 0
BBX 10 20 0 -6
BITMAP
0C00
0C00
0C00
0C00
0C00
0C00
0C00
0C00
0C00
0FC0
0000
0000
0000
0000
0000
0000
0000
0000
0000
0000
ENDCHAR
STARTCHAR BOX DRAWINGS HEAVY UP AND RIGHT
ENCODING 9495
SWIDTH 360 0
DWIDTH 10 0
BBX 10 20 0 -6
BITMAP
0C00
0C00
0C00
0C00
0C00
0C00
0C00
0C00
0C00
0FC0
0FC0
0000
0000
0000
0000
0000
0000
0000
0000
0000
ENDCHAR
STARTCHAR BOX DRAWINGS LIGHT UP AND LEFT
ENCODING 9496
SWIDTH 360 0
DWIDTH 10 0
BBX 10 20 0 -6
BITMAP
0800
0800
0800
0800
0800
0800
0800
0800
0800
F800
0000
0000
0000
0000
0000
0000
0000
0000
0000
0000
ENDCHAR
STARTCHAR BOX DRAWINGS UP LIGHT AND LEFT HEAVY
ENCODING 9497
SWIDTH 360 0
DWIDTH 10 0
BBX 10 20 0 -6
BITMAP
0800
0800
0800
0800
0800
0800
0800
0800
0800
F800
F800
0000
0000
0000
0000
0000
0000
0000
0000
0000
ENDCHAR
STARTCHAR BOX DRAWINGS UP HEAVY AND LEFT LIGHT
ENCODING 9498
SWIDTH 360 0
DWIDTH 10 0
BBX 10 20 0 -6
BITMAP
0C00
0C00
0C00
0C00
0C00
0C00
0C00
0C00
0C00
FC00
0000
0000
0000
0000
0000
0000
0000
0000
0000
0000
ENDCHAR
STARTCHAR BOX DRAWINGS HEAVY UP AND LEFT
ENCODING 9499
SWIDTH 360 0
DWIDTH 10 0
BBX 10 20 0 -6
BITMAP
0C00
0C00
0C00
0C00
0C00
0C00
0C00
0C00
0C00
FC00
FC00
0000
0000
0000
0000
0000
0000
0000
0000
0000
ENDCHAR
STARTCHAR BOX DRAWINGS LIGHT VERTICAL AND RIGHT
ENCODING 9500
SWIDTH 360 0
DWIDTH 10 0
BBX 10 20 0 -6
BITMAP
0800
0800
0800
0800
0800
0800
0800
0800
0800
0FC0
0800
0800
0800
0800
0800
0800
0800
0800
0800
0800
ENDCHAR
STARTCHAR BOX DRAWINGS VERTICAL LIGHT AND RIGHT HEAVY
ENCODING 9501
SWIDTH 360 0
DWIDTH 10 0
BBX 10 20 0 -6
BITMAP
0800
0800
0800
0800
0800
0800
0800
0800
0800
0FC0
0FC0
0800
0800
0800
0800
0800
0800
0800
0800
0800
ENDCHAR
STARTCHAR BOX DRAWINGS UP HEAVY AND RIGHT DOWN LIGHT
ENCODING 9502
SWIDTH 360 0
DWIDTH 10 0
BBX 10 20 0 -6
BITMAP
0C00
0C00
0C00
0C00
0C00
0C00
0C00
0C00
0C00
0FC0
0800
0800
0800
0800
0800
0800
0800
0800
0800
0800
ENDCHAR
STARTCHAR BOX DRAWINGS DOWN HEAVY AND RIGHT UP LIGHT
ENCODING 9503
SWIDTH 360 0
DWIDTH 10 0
BBX 10 20 0 -6
BITMAP
0800
0800
0800
0800
0800
0800
0800
0800
0800
0FC0
0C00
0C00
0C00
0C00
0C00
0C00
0C00
0C00
0C00
0C00
ENDCHAR
STARTCHAR BOX DRAWINGS VERTICAL HEAVY AND RIGHT LIGHT
ENCODING 9504
SWIDTH 360 0
DWIDTH 10 0
BBX 10 20 0 -6
BITMAP
0C00
0C00
0C00
0C00
0C00
0C00
0C00
0C00
0C00
0FC0
0C00
0C00
0C00
0C00
0C00
0C00
0C00
0C00
0C00
0C00
ENDCHAR
STARTCHAR BOX DRAWINGS DOWN LIGHT AND RIGHT UP HEAVY
ENCODING 9505
SWIDTH 360 0
DWIDTH 10 0
BBX 10 20 0 -6
BITMAP
0C00
0C00
0C00
0C00
0C00
0C00
0C00
0C00
0C00
0FC0
0FC0
0800
0800
0800
0800
0800
0800
0800
0800
0800
ENDCHAR
STARTCHAR BOX DRAWINGS UP LIGHT AND RIGHT DOWN HEAVY
ENCODING 9506
SWIDTH 360 0
DWIDTH 10 0
BBX 10 20 0 -6
BITMAP
0800
0800
0800
0800
0800
0800
0800
0800
0800
0FC0
0FC0
0C00
0C00
0C00
0C00
0C00
0C00
0C00
0C00
0C00
ENDCHAR
STARTCHAR BOX DRAWINGS HEAVY VERTICAL AND RIGHT
ENCODING 9507
SWIDTH 360 0
DWIDTH 10 0
BBX 10 20 0 -6
BITMAP
0C00
0C00
0C00
0C00
0C00
0C00
0C00
0C00
0C00
0FC0
0FC0
0C00
0C00
0C00
0C00
0C00
0C00
0C00
0C00
0C00
ENDCHAR
STARTCHAR BOX DRAWINGS LIGHT VERTICAL AND LEFT
ENCODING 9508
SWIDTH 360 0
DWIDTH 10 0
BBX 10 20 0 -6
BITMAP
0800
0800
0800
0800
0800
0800
0800
0800
0800
F800
0800
0800
0800
0800
0800
0800
0800
0800
0800
0800
ENDCHAR
STARTCHAR BOX DRAWINGS VERTICAL LIGHT AND LEFT HEAVY
ENCODING 9509
SWIDTH 360 0
DWIDTH 10 0
BBX 10 20 0 -6
BITMAP
0800
0800
0800
0800
0800
0800
0800
0800
0800
F800
F800
0800
0800
0800
0800
0800
0800
0800
0800
0800
ENDCHAR
STARTCHAR BOX DRAWINGS UP HEAVY AND LEFT DOWN LIGHT
ENCODING 9510
SWIDTH 360 0
DWIDTH 10 0
BBX 10 20 0 -6
BITMAP
0C00
0C00
0C00
0C00
0C00
0C00
0C00
0C00
0C00
FC00
0800
0800
0800
0800
0800
0800
0800
0800
0800
0800
ENDCHAR
STARTCHAR BOX DRAWINGS DOWN HEAVY AND LEFT UP LIGHT
ENCODING 9511
SWIDTH 360 0
DWIDTH 10 0
BBX 10 20 0 -6
BITMAP
0800
0800
0800
0800
0800
0800
0800
0800
0800
FC00
0C00
0C00
0C00
0C00
0C00
0C00
0C00
0C00
0C00
0C00
ENDCHAR
STARTCHAR BOX DRAWINGS VERTICAL HEAVY AND LEFT LIGHT
ENCODING 9512
SWIDTH 360 0
DWIDTH 10 0
BBX 10 20 0 -6
BITMAP
0C00
0C00
0C00
0C00
0C00
0C00
0C00
0C00
0C00
FC00
0C00
0C00
0C00
0C00
0C00
0C00
0C00
0C00
0C00
0C00
ENDCHAR
STARTCHAR BOX DRAWINGS DOWN LIGHT AND LEFT UP HEAVY
ENCODING 9513
SWIDTH 360 0
DWIDTH 10 0
BBX 10 20 0 -6
BITMAP
0C00
0C00
0C00
0C00
0C00
0C00
0C00
0C00
0C00
FC00
FC00
0800
0800
0800
0800
0800
0800
0800
0800
0800
ENDCHAR
STARTCHAR BOX DRAWINGS UP LIGHT AND LEFT DOWN HEAVY
ENCODING 9514
SWIDTH 360 0
DWIDTH 10 0
BBX 10 20 0 -6
BITMAP
0800
0800
0800
0800
0800
0800
0800
0800
0800
FC00
FC00
0C00
0C00
0C00
0C00
0C00
0C00
0C00
0C00
0C00
ENDCHAR
STARTCHAR BOX DRAWINGS HEAVY VERTICAL AND LEFT
ENCODING 9515
SWIDTH 360 0
DWIDTH 10 0
BBX 10 20 0 -6
BITMAP
0C00
0C00
0C00
0C00
0C00
0C00
0C00
0C00
0C00
FC00
FC00
0C00
0C00
0C00
0C00
0C00
0C00
0C00
0C00
0C00
ENDCHAR
STARTCHAR BOX DRAWINGS LIGHT DOWN AND HORIZONTAL
ENCODING 9516
SWIDTH 360 0
DWIDTH 10 0
BBX 10 20 0 -6
BITMAP
0000
0000
0000
0000
0000
0000
0000
0000
0000
FFC0
0800
0800
0800
0800
0800
0800
0800
0800
0800
0800
ENDCHAR
STARTCHAR BOX DRAWINGS LEFT HEAVY AND RIGHT DOWN LIGHT
ENCODING 9517
SWIDTH 360 0
DWIDTH 10 0
BBX 10 20 0 -6
BITMAP
0000
0000
0000
0000
0000
0000
0000
0000
0000
FFC0
F800
0800
0800
0800
0800
0800
0800
0800
0800
0800
ENDCHAR
STARTCHAR BOX DRAWINGS RIGHT HEAVY AND LEFT DOWN LIGHT
ENCODING 9518
SWIDTH 360 0
DWIDTH 10 0
BBX 10 20 0 -6
BITMAP
0000
0000
0000
0000
0000
0000
0000
0000
0000
FFC0
0FC0
0800
0800
0800
0800
0800
0800
0800
0800
0800
ENDCHAR
STARTCHAR BOX DRAWINGS DOWN LIGHT AND HORIZONTAL HEAVY
ENCODING 9519
SWIDTH 360 0
DWIDTH 10 0
BBX 10 20 0 -6
BITMAP
0000
0000
0000
0000
0000
0000
0000
0000
0000
FFC0
FFC0
0800
0800
0800
0800
0800
0800
0800
0800
0800
ENDCHAR
STARTCHAR BOX DRAWINGS DOWN HEAVY AND HORIZONTAL LIGHT
ENCODING 9520
SWIDTH 360 0
DWIDTH 10 0
BBX 10 20 0 -6
BITMAP
0000
0000
0000
0000
0000
0000
0000
0000
0000
FFC0
0C00
0C00
0C00
0C00
0C00
0C00
0C00
0C00
0C00
0C00
ENDCHAR
STARTCHAR BOX DRAWINGS RIGHT LIGHT AND LEFT DOWN HEAVY
ENCODING 9521
SWIDTH 360 0
DWIDTH 10 0
BBX 10 20 0 -6
BITMAP
0000
0000
0000
0000
0000
0000
0000
0000
0000
FFC0
FC00
0C00
0C00
0C00
0C00
0C00
0C00
0C00
0C00
0C00
ENDCHAR
STARTCHAR BOX DRAWINGS LEFT LIGHT AND RIGHT DOWN HEAVY
ENCODING 9522
SWIDTH 360 0
DWIDTH 10 0
BBX 10 20 0 -6
BITMAP
0000
0000
0000
0000
0000
0000
0000
0000
0000
FFC0
0FC0
0C00
0C00
0C00
0C00
0C00
0C00
0C00
0C00
0C00
ENDCHAR
STARTCHAR BOX DRAWINGS HEAVY DOWN AND HORIZONTAL
ENCODING 9523
SWIDTH 360 0
DWIDTH 10 0
BBX 10 20 0 -6
BITMAP
0000
0000
0000
0000
0000
0000
0000
0000
0000
FFC0
FFC0
0C00
0C00
0C00
0C00
0C00
0C00
0C00
0C00
0C00
ENDCHAR
STARTCHAR BOX DRAWINGS LIGHT UP AND HORIZONTAL
ENCODING 9524
SWIDTH 360 0
DWIDTH 10 0
BBX 10 20 0 -6
BITMAP
0800
0800
0800
0800
0800
0800
0800
0800
0800
FFC0
0000
0000
0000
0000
0000
0000
0000
0000
0000
0000
ENDCHAR
STARTCHAR BOX DRAWINGS LEFT HEAVY AND RIGHT UP LIGHT
ENCODING 9525
SWIDTH 360 0
DWIDTH 10 0
BBX 10 20 0 -6
BITMAP
0800
0800
0800
0800
0800
0800
0800
0800
0800
FFC0
F800
0000
0000
0000
0000
0000
0000
0000
0000
0000
ENDCHAR
STARTCHAR BOX DRAWINGS RIGHT HEAVY AND LEFT UP LIGHT
ENCODING 9526
SWIDTH 360 0
DWIDTH 10 0
BBX 10 20 0 -6
BITMAP
0800
0800
0800
0800
0800
0800
0800
0800
0800
FFC0
0FC0
0000
0000
0000
0000
0000
0000
0000
0000
0000
ENDCHAR
STARTCHAR BOX DRAWINGS UP LIGHT AND HORIZONTAL HEAVY
ENCODING 9527
SWIDTH 360 0
DWIDTH 10 0
BBX 10 20 0 -6
BITMAP
0800
0800
0800
0800
0800
0800
0800
0800
0800
FFC0
FFC0
0000
0000
0000
0000
0000
0000
0000
0000
0000
ENDCHAR
STARTCHAR BOX DRAWINGS UP HEAVY AND HORIZONTAL LIGHT
ENCODING 9528
SWIDTH 360 0
DWIDTH 10 0
BBX 10 20 0 -6
BITMAP
0C00
0C00
0C00
0C00
0C00
0C00
0C00
0C00
0C00
FFC0
0000
0000
0000
0000
0000
0000
0000
0000
0000
0000
ENDCHAR
STARTCHAR BOX DRAWINGS RIGHT LIGHT AND LEFT UP HEAVY
ENCODING 9529
SWIDTH 360 0
DWIDTH 10 0
BBX 10 20 0 -6
BITMAP
0C00
0C00
0C00
0C00
0C00
0C00
0C00
0C00
0C00
FFC0
FC00
0000
0000
0000
0000
0000
0000
0000
0000
0000
ENDCHAR
STARTCHAR BOX DRAWINGS LEFT LIGHT AND RIGHT UP HEAVY
ENCODING 9530
SWIDTH 360 0
DWIDTH 10 0
BBX 10 20 0 -6
BITMAP
0C00
0C00
0C00
0C00
0C00
0C00
0C00
0C00
0C00
FFC0
0FC0
0000
0000
0000
0000
0000
0000
0000
0000
0000
ENDCHAR
STARTCHAR BOX DRAWINGS HEAVY UP AND HORIZONTAL
ENCODING 9531
SWIDTH 360 0
DWIDTH 10 0
BBX 10 20 0 -6
BITMAP
0C00
0C00
0C00
0C00
0C00
0C00
0C00
0C00
0C00
FFC0
FFC0
0000
0000
0000
0000
0000
0000
0000
0000
0000
ENDCHAR
STARTCHAR BOX DRAWINGS LIGHT VERTICAL AND HORIZONTAL
ENCODING 9532
SWIDTH 360 0
DWIDTH 10 0
BBX 10 20 0 -6
BITMAP
0800
0800
0800
0800
0800
0800
0800
0800
0800
FFC0
0800
0800
0800
0800
0800
0800
0800
0800
0800
0800
ENDCHAR
STARTCHAR BOX DRAWINGS LEFT HEAVY AND RIGHT VERTICAL LIGHT
ENCODING 9533
SWIDTH 360 0
DWIDTH 10 0
BBX 10 20 0 -6
BITMAP
0800
0800
0800
0800
0800
0800
0800
0800
0800
FFC0
F800
0800
0800
0800
0800
0800
0800
0800
0800
0800
ENDCHAR
STARTCHAR BOX DRAWINGS RIGHT HEAVY AND LEFT VERTICAL LIGHT
ENCODING 9534
SWIDTH 360 0
DWIDTH 10 0
BBX 10 20 0 -6
BITMAP
0800
0800
0800
0800
0800
0800
0800
0800
0800
FFC0
0FC0
0800
0800
0800
0800
0800
0800
0800
0800
0800
ENDCHAR
STARTCHAR BOX DRAWINGS VERTICAL LIGHT AND HORIZONTAL HEAVY
ENCODING 9535
SWIDTH 360 0
DWIDTH 10 0
BBX 10 20 0 -6
BITMAP
0800
0800
0800
0800
0800
0800
0800
0800
0800
FFC0
FFC0
0800
0800
0800
0800
0800
0800
0800
0800
0800
ENDCHAR
STARTCHAR BOX DRAWINGS UP HEAVY AND DOWN HORIZONTAL LIGHT
ENCODING 9536
SWIDTH 360 0
DWIDTH 10 0
BBX 10 20 0 -6
BITMAP
0C00
0C00
0C00
0C00
0C00
0C00
0C00
0C00
0C00
FFC0
0800
0800
0800
0800
0800
0800
0800
0800
0800
0800
ENDCHAR
STARTCHAR BOX DRAWINGS DOWN HEAVY AND UP HORIZONTAL LIGHT
ENCODING 9537
SWIDTH 360 0
DWIDTH 10 0
BBX 10 20 0 -6
BITMAP
0800
0800
0800
0800
0800
0800
0800
0800
0800
FFC0
0C00
0C00
0C00
0C00
0C00
0C00
0C00
0C00
0C00
0C00
ENDCHAR
STARTCHAR BOX DRAWINGS VERTICAL HEAVY AND HORIZONTAL LIGHT
ENCODING 9538
SWIDTH 360 0
DWIDTH 10 0
BBX 10 20 0 -6
BITMAP
0C00
0C00
0C00
0C00
0C00
0C00
0C00
0C00
0C00
FFC0
0C00
0C00
0C00
0C00
0C00
0C00
0C00
0C00
0C00
0C00
ENDCHAR
STARTCHAR BOX DRAWINGS LEFT UP HEAVY AND RIGHT DOWN LIGHT
ENCODING 9539
SWIDTH 360 0
DWIDTH 10 0
BBX 10 20 0 -6
BITMAP
0C00
0C00
0C00
0C00
0C00
0C00
0C00
0C00
0C00
FFC0
F800
0800
0800
0800
0800
0800
0800
0800
0800
0800
ENDCHAR
STARTCHAR BOX DRAWINGS RIGHT UP HEAVY AND LEFT DOWN LIGHT
ENCODING 9540
SWIDTH 360 0
DWIDTH 10 0
BBX 10 20 0 -6
BITMAP
0C00
0C00
0C00
0C00
0C00
0C00
0C00
0C00
0C00
FFC0
0FC0
0800
0800
0800
0800
0800
0800
0800
0800
0800
ENDCHAR
STARTCHAR BOX DRAWINGS LEFT DOWN HEAVY AND RIGHT UP LIGHT
ENCODING 9541
SWIDTH 360 0
DWIDTH 10 0
BBX 10 20 0 -6
BITMAP
0800
0800
0800
0800
0800
0800
0800
0800
0800
FFC0
FC00
0C00
0C00
0C00
0C00
0C00
0C00
0C00
0C00
0C00
ENDCHAR
STARTCHAR BOX DRAWINGS RIGHT DOWN HEAVY AND LEFT UP LIGHT
ENCODING 9542
SWIDTH 360 0
DWIDTH 10 0
BBX 10 20 0 -6
BITMAP
0800
0800
0800
0800
0800
0800
0800
0800
0800
FFC0
0FC0
0C00
0C00
0C00
0C00
0C00
0C00
0C00
0C00
0C00
ENDCHAR
STARTCHAR BOX DRAWINGS DOWN LIGHT AND UP HORIZONTAL HEAVY
ENCODING 9543
SWIDTH 360 0
DWIDTH 10 0
BBX 10 20 0 -6
BITMAP
0C00
0C00
0C00
0C00
0C00
0C00
0C00
0C00
0C00
FFC0
FFC0
0800
0800
0800
0800
0800
0800
0800
0800
0800
ENDCHAR
STARTCHAR BOX DRAWINGS UP LIGHT AND DOWN HORIZONTAL HEAVY
ENCODING 9544
SWIDTH 360 0
DWIDTH 10 0
BBX 10 20 0 -6
BITMAP
0800
0800
0800
0800
0800
0800
0800
0800
0800
FFC0
FFC0
0C00
0C00
0C00
0C00
0C00
0C00
0C00
0C00
0C00
ENDCHAR
STARTCHAR BOX DRAWINGS RIGHT LIGHT AND LEFT VERTICAL HEAVY
ENCODING 9545
SWIDTH 360 0
DWIDTH 10 0
BBX 10 20 0 -6
BITMAP
0C00
0C00
0C00
0C00
0C00
0C00
0C00
0C00
0C00
FFC0
FC00
0C00
0C00
0C00
0C00
0C00
0C00
0C00
0C00
0C00
ENDCHAR
STARTCHAR BOX DRAWINGS LEFT LIGHT AND RIGHT VERTICAL HEAVY
ENCODING 9546
SWIDTH 360 0
DWIDTH 10 0
BBX 10 20 0 -6
BITMAP
0C00
0C00
0C00
0C00
0C00
0C00
0C00
0C00
0C00
FFC0
0FC0
0C00
0C00
0C00
0C00
0C00
0C00
0C00
0C00
0C00
ENDCHAR
STARTCHAR BOX DRAWINGS HEAVY VERTICAL AND HORIZONTAL
ENCODING 9547
SWIDTH 360 0
DWIDTH 10 0
BBX 10 20 0 -6
BITMAP
0C00
0C00
0C00
0C00
0C00
0C00
0C00
0C00
0C00
FFC0
FFC0
0C00
0C00
0C00
0C00
0C00
0C00
0C00
0C00
0C00
ENDCHAR
STARTCHAR BOX DRAWINGS DOUBLE HORIZONTAL
ENCODING 9552
SWIDTH 360 0
DWIDTH 10 0
BBX 10 20 0 -6
BITMAP
0000
0000
0000
0000
0000
0000
0000
0000
FFC0
0000
FFC0
0000
0000
0000
0000
0000
0000
0000
0000
0000
ENDCHAR
STARTCHAR BOX DRAWINGS DOUBLE VERTICAL
ENCODING 9553
SWIDTH 360 0
DWIDTH 10 0
BBX 10 20 0 -6
BITMAP
1400
1400
1400
1400
1400
1400
1400
1400
1400
1400
1400
1400
1400
1400
1400
1400
1400
1400
1400
1400
ENDCHAR
STARTCHAR BOX DRAWINGS DOWN SINGLE AND RIGHT DOUBLE
ENCODING 9554
SWIDTH 360 0
DWIDTH 10 0
BBX 10 20 0 -6
BITMAP
0000
0000
0000
0000
0000
0000
0000
0000
0FC0
0800
0FC0
0800
0800
0800
0800
0800
0800
0800
0800
0800
ENDCHAR
STARTCHAR BOX DRAWINGS DOWN DOUBLE AND RIGHT SINGLE
ENCODING 9555
SWIDTH 360 0
DWIDTH 10 0
BBX 10 20 0 -6
BITMAP
0000
0000
0000
0000
0000
0000
0000
0000
0000
1FC0
1400
1400
1400
1400
1400
1400
1400
1400
1400
1400
ENDCHAR
STARTCHAR BOX DRAWINGS DOUBLE DOWN AND RIGHT
ENCODING 9556
SWIDTH 360 0
DWIDTH 10 0
BBX 10 20 0 -6
BITMAP
0000
0000
0000
0000
0000
0000
0000
0000
1FC0
1000
17C0
1400
1400
1400
1400
1400
1400
1400
1400
1400
ENDCHAR
STARTCHAR BOX DRAWINGS DOWN SINGLE AND LEFT DOUBLE
ENCODING 9557
SWIDTH 360 0
DWIDTH 10 0
BBX 10 20 0 -6
BITMAP
0000
0000
0000
0000
0000
0000
0000
0000
F800
0800
F800
0800
0800
0800
0800
0800
0800
0800
0800
0800
ENDCHAR
STARTCHAR BOX DRAWINGS DOWN DOUBLE AND LEFT SINGLE
ENCODING 9558
SWIDTH 360 0
DWIDTH 10 0
BBX 10 20 0 -6
BITMAP
0000
0000
0000
0000
0000
0000
0000
0000
0000
FC00
1400
1400
1400
1400
1400
1400
1400
1400
1400
1400
ENDCHAR
STARTCHAR BOX DRAWINGS DOUBLE DOWN AND LEFT
ENCODING 9559
SWIDTH 360 0
DWIDTH 10 0
BBX 10 20 0 -6
BITMAP
0000
0000
0000
0000
0000
0000
0000
0000
FC00
0400
F400
1400
1400
1400
1400
1400
1400
1400
1400
1400
ENDCHAR
STARTCHAR BOX DRAWINGS UP SINGLE AND RIGHT DOUBLE
ENCODING 9560
SWIDTH 360 0
DWIDTH 10 0
BBX 10 20 0 -6
BITMAP
0800
0800
0800
0800
0800
0800
0800
0800
0FC0
0800
0FC0
0000
0000
0000
0000
0000
0000
0000
0000
0000
ENDCHAR
STARTCHAR BOX DRAWINGS UP DOUBLE AND RIGHT SINGLE
ENCODING 9561
SWIDTH 360 0
DWIDTH 10 0
BBX 10 20 0 -6
BITMAP
1400
1400
1400
1400
1400
1400
1400
1400
1400
1FC0
0000
0000
0000
0000
0000
0000
0000
0000
0000
0000
ENDCHAR
STARTCHAR BOX DRAWINGS DOUBLE UP AND RIGHT
ENCODING 9562
SWIDTH 360 0
DWIDTH 10 0
BBX 10 20 0 -6
BITMAP
1400
1400
1400
1400
1400
1400
1400
1400
17C0
1000
1FC0
0000
0000
0000
0000
0000
0000
0000
0000
0000
ENDCHAR
STARTCHAR BOX DRAWINGS UP SINGLE AND LEFT DOUBLE
ENCODING 9563
SWIDTH 360 0
DWIDTH 10 0
BBX 10 20 0 -6
BITMAP
0800
0800
0800
0800
0800
0800
0800
0800
F800
0800
F800
0000
0000
0000
0000
0000
0000
0000
0000
0000
ENDCHAR
STARTCHAR BOX DRAWINGS UP DOUBLE AND LEFT SINGLE
ENCODING 9564
SWIDTH 360 0
DWIDTH 10 0
BBX 10 20 0 -6
BITMAP
1400
1400
1400
1400
1400
1400
1400
1400
1400
FC00
0000
0000
0000
0000
0000
0000
0000
0000
0000
0000
ENDCHAR
STARTCHAR BOX DRAWINGS DOUBLE UP AND LEFT
ENCODING 9565
SWIDTH 360 0
DWIDTH 10 0
BBX 10 20 0 -6
BITMAP
1400
1400
1400
1400
1400
1400
1400
1400
F400
0400
FC00
0000
0000
0000
0000
0000
0000
0000
0000
0000
ENDCHAR
STARTCHAR BOX DRAWINGS VERTICAL SINGLE AND RIGHT DOUBLE
ENCODING 9566
SWIDTH 360 0
DWIDTH 10 0
BBX 10 20 0 -6
BITMAP
0800
0800
0800
0800
0800
0800
0800
0800
0FC0
0800
0FC0
0800
0800
0800
0800
0800
0800
0800
0800
0800
ENDCHAR
STARTCHAR BOX DRAWINGS VERTICAL DOUBLE AND RIGHT SINGLE
ENCODING 9567
SWIDTH 360 0
DWIDTH 10 0
BBX 10 20 0 -6
BITMAP
1400
1400
1400
1400
1400
1400
1400
1400
1400
17C0
1400
1400
1400
1400
1400
1400
1400
1400
1400
1400
ENDCHAR
STARTCHAR BOX DRAWINGS DOUBLE VERTICAL AND RIGHT
ENCODING 9568
SWIDTH 360 0
DWIDTH 10 0
BBX 10 20 0 -6
BITMAP
1400
1400
1400
1400
1400
1400
1400
1400
17C0
1000
17C0
1400
1400
1400
1400
1400
1400
1400
1400
1400
ENDCHAR
STARTCHAR BOX DRAWINGS VERTICAL SINGLE AND LEFT DOUBLE
ENCODING 9569
SWIDTH 360 0
DWIDTH 10 0
BBX 10 20 0 -6
BITMAP
0800
0800
0800
0800
0800
0800
0800
0800
F800
0800
F800
0800
0800
0800
0800
0800
0800
0800
0800
0800
ENDCHAR
STARTCHAR BOX DRAWINGS VERTICAL DOUBLE AND LEFT SINGLE
ENCODING 9570
SWIDTH 360 0
DWIDTH 10 0
BBX 10 20 0 -6
BITMAP
1400
1400
1400
1400
1400
1400
1400
1400
1400
F400
1400
1400
1400
1400
1400
1400
1400
1400
1400
1400
ENDCHAR
STARTCHAR BOX DRAWINGS DOUBLE VERTICAL AND LEFT
ENCODING 9571
SWIDTH 360 0
DWIDTH 10 0
BBX 10 20 0 -6
BITMAP
1400
1400
1400
1400
1400
1400
1400
1400
F400
0400
F400
1400
1400
1400
1400
1400
1400
1400
1400
1400
ENDCHAR
STARTCHAR BOX DRAWINGS DOWN SINGLE AND HORIZONTAL DOUBLE
ENCODING 9572
SWIDTH 360 0
DWIDTH 10 0
BBX 10 20 0 -6
BITMAP
0000
0000
0000
0000
0000
0000
0000
0000
FFC0
0000
FFC0
0800
0800
0800
0800
0800
0800
0800
0800
0800
ENDCHAR
STARTCHAR BOX DRAWINGS DOWN DOUBLE AND HORIZONTAL SINGLE
ENCODING 9573
SWIDTH 360 0
DWIDTH 10 0
BBX 10 20 0 -6
BITMAP
0000
0000
0000
0000
0000
0000
0000
0000
0000
FFC0
1400
1400
1400
1400
1400
1400
1400
1400
1400
1400
ENDCHAR
STARTCHAR BOX DRAWINGS DOUBLE DOWN AND HORIZONTAL
ENCODING 9574
SWIDTH 360 0
DWIDTH 10 0
BBX 10 20 0 -6
BITMAP
0000
0000
0000
0000
0000
0000
0000
0000
FFC0
0000
F7C0
1400
1400
1400
1400
1400
1400
1400
1400
1400
ENDCHAR
STARTCHAR BOX DRAWINGS UP SINGLE AND HORIZONTAL DOUBLE
ENCODING 9575
SWIDTH 360 0
DWIDTH 10 0
BBX 10 20 0 -6
BITMAP
0800
0800
0800
0800
0800
0800
0800
0800
FFC0
0000
FFC0
0000
0000
0000
0000
0000
0000
0000
0000
0000
ENDCHAR
STARTCHAR BOX DRAWINGS UP DOUBLE AND HORIZONTAL SINGLE
ENCODING 9576
SWIDTH 360 0
DWIDTH 10 0
BBX 10 20 0 -6
BITMAP
1400
1400
1400
1400
1400
1400
1400
1400
1400
FFC0
0000
0000
0000
0000
0000
0000
0000
0000
0000
0000
ENDCHAR
STARTCHAR BOX DRAWINGS DOUBLE UP AND HORIZONTAL
ENCODING 9577
SWIDTH 360 0
DWIDTH 10 0
BBX 10 20 0 -6
BITMAP
1400
1400
1400
1400
1400
1400
1400
1400
F7C0
0000
FFC0
0000
0000
0000
0000
0000
0000
0000
0000
0000
ENDCHAR
STARTCHAR BOX DRAWINGS VERTICAL SINGLE AND HORIZONTAL DOUBLE
ENCODING 9578
SWIDTH 360 0
DWIDTH 10 0
BBX 10 20 0 -6
BITMAP
0800
0800
0800
0800
0800
0800
0800
0800
FFC0
0800
FFC0
0800
0800
0800
0800
0800
0800
0800
0800
0800
ENDCHAR
STARTCHAR BOX DRAWINGS VERTICAL DOUBLE AND HORIZONTAL SINGLE
ENCODING 9579
SWIDTH 360 0
DWIDTH 10 0
BBX 10 20 0 -6
BITMAP
1400
1400
1400
1400
1400
1400
1400
1400
1400
FFC0
1400
1400
1400
1400
1400
1400
1400
1400
1400
1400
ENDCHAR
STARTCHAR BOX DRAWINGS DOUBLE VERTICAL AND HORIZONTAL
ENCODING 9580
SWIDTH 360 0
DWIDTH 10 0
BBX 10 20 0 -6
BITMAP
1400
1400
1400
1400
1400
1400
1400
1400
F7C0
0000
F7C0
1400
1400
1400
1400
1400
1400
1400
1400
1400
ENDCHAR
STARTCHAR BOX DRAWINGS LIGHT ARC DOWN AND RIGHT
ENCODING 9581
SWIDTH 360 0
DWIDTH 10 0
BBX 10 20 0 -6
BITMAP
0000
0000
0000
0000
0000
0000
0000
0000
0000
01C0
0200
0400
0800
0800
0800
0800
0800
0800
0800
0800
ENDCHAR
STARTCHAR BOX DRAWINGS LIGHT ARC DOWN AND LEFT
ENCODING 9582
SWIDTH 360 0
DWIDTH 10 0
BBX 10 20 0 -6
BITMAP
0000
0000
0000
0000
0000
0000
0000
0000
0000
C000
2000
1000
0800
0800
0800
0800
0800
0800
0800
0800
ENDCHAR
STARTCHAR BOX DRAWINGS LIGHT ARC UP AND LEFT
ENCODING 9583
SWIDTH 360 0
DWIDTH 10 0
BBX 10 20 0 -6
BITMAP
0800
0800
0800
0800
0800
0800
0800
1000
2000
C000
0000
0000
0000
0000
0000
0000
0000
0000
0000
0000
ENDCHAR
STARTCHAR BOX DRAWINGS LIGHT ARC UP AND RIGHT
ENCODING 9584
SWIDTH 360 0
DWIDTH 10 0
BBX 10 20 0 -6
BITMAP
0800
0800
0800
0800
0800
0800
0800
0400
0200
01C0
0000
0000
0000
0000
0000
0000
0000
0000
0000
0000
ENDCHAR
STARTCHAR BOX DRAWINGS LIGHT LEFT
ENCODING 9588
SWIDTH 360 0
DWIDTH 10 0
BBX 10 20 0 -6
BITMAP
0000
0000
0000
0000
0000
0000
0000
0000
0000
F800
0000
0000
0000
0000
0000
0000
0000
0000
0000
0000
ENDCHAR
STARTCHAR BOX DRAWINGS LIGHT UP
ENCODING 9589
SWIDTH 360 0
DWIDTH 10 0
BBX 10 20 0 -6
BITMAP
0800
0800
0800
0800
0800
0800
0800
0800
0800
0800
0000
0000
0000
0000
0000
0000
0000
0000
0000
0000
ENDCHAR
STARTCHAR BOX DRAWINGS LIGHT RIGHT
ENCODING 9590
SWIDTH 360 0
DWIDTH 10 0
BBX 10 20 0 -6
BITMAP
0000
0000
0000
0000
0000
0000
0000
0000
0000
0FC0
0000
0000
0000
0000
0000
0000
0000
0000
0000
0000
ENDCHAR
STARTCHAR BOX DRAWINGS LIGHT DOWN
ENCODING 9591
SWIDTH 360 0
DWIDTH 10 0
BBX 10 20 0 -6
BITMAP
0000
0000
0000
0000
0000
0000
0000
0000
0000
0800
0800
0800
0800
0800
0800
0800
0800
0800
0800
0800
ENDCHAR
STARTCHAR BOX DRAWINGS HEAVY LEFT
ENCODING 9592
SWIDTH 360 0
DWIDTH 10 0
BBX 10 20 0 -6
BITMAP
0000
0000
0000
0000
0000
0000
0000
0000
0000
F800
F800
0000
0000
0000
0000
0000
0000
0000
0000
0000
ENDCHAR
STARTCHAR BOX DRAWINGS HEAVY UP
ENCODING 9593
SWIDTH 360 0
DWIDTH 10 0
BBX 10 20 0 -6
BITMAP
0C00
0C00
0C00
0C00
0C00
0C00
0C00
0C00
0C00
0C00
0000
0000
0000
0000
0000
0000
0000
0000
0000
0000
ENDCHAR
STARTCHAR BOX DRAWINGS HEAVY RIGHT
ENCODING 9594
SWIDTH 360 0
DWIDTH 10 0
BBX 10 20 0 -6
BITMAP
0000
0000
0000
0000
0000
0000
0000
0000
0000
0FC0
0FC0
0000
0000
0000
0000
0000
0000
0000
0000
0000
ENDCHAR
STARTCHAR BOX DRAWINGS HEAVY DOWN
ENCODING 9595
SWIDTH 360 0
DWIDTH 10 0
BBX 10 20 0 -6
BITMAP
0000
0000
0000
0000
0000
0000
0000
0000
0000
0C00
0C00
0C00
0C00
0C00
0C00
0C00
0C00
0C00
0C00
0C00
ENDCHAR
STARTCHAR BOX DRAWINGS LIGHT LEFT AND HEAVY RIGHT
ENCODING 9596
SWIDTH 360 0
DWIDTH 10 0
BBX 10 20 0 -6
BITMAP
0000
0000
0000
0000
0000
0000
0000
0000
0000
FFC0
07C0
0000
0000
0000
0000
0000
0000
0000
0000
0000
ENDCHAR
STARTCHAR BOX DRAWINGS LIGHT UP AND HEAVY DOWN
ENCODING 9597
SWIDTH 360 0
DWIDTH 10 0
BBX 10 20 0 -6
BITMAP
0800
0800
0800
0800
0800
0800
0800
0800
0800
0C00
0C00
0C00
0C00
0C00
0C00
0C00
0C00
0C00
0C00
0C00
ENDCHAR
STARTCHAR BOX DRAWINGS HEAVY LEFT AND LIGHT RIGHT
ENCODING 9598
SWIDTH 360 0
DWIDTH 10 0
BBX 10 20 0 -6
BITMAP
0000
0000
0000
0000
0000
0000
0000
0000
0000
FFC0
F800
0000
0000
0000
0000
0000
0000
0000
0000
0000
ENDCHAR
STARTCHAR BOX DRAWINGS HEAVY UP AND LIGHT DOWN
ENCODING 9599
SWIDTH 360 0
DWIDTH 10 0
BBX 10 20 0 -6
BITMAP
0C00
0C00
0C00
0C00
0C00
0C00
0C00
0C00
0C00
0C00
0800
0800
0800
0800
0800
0800
0800
0800
0800
0800
ENDCHAR
STARTCHAR UPPER HALF BLOCK
ENCODING 9600
SWIDTH 360 0
DWIDTH 10 0
BBX 10 20 0 -6
BITMAP
FFC0
FFC0
FFC0
FFC0
FFC0
FFC0
FFC0
FFC0
FFC0
FFC0
0000
0000
0000
0000
0000
0000
0000
0000
0000
0000
ENDCHAR
STARTCHAR LOWER ONE EIGHTH BLOCK
ENCODING 9601
SWIDTH 360 0
DWIDTH 10 0
BBX 10 20 0 -6
BITMAP
0000
0000
0000
0000
0000
0000
0000
0000
0000
0000
0000
0000
0000
0000
0000
0000
0000
0000
FFC0
FFC0
ENDCHAR
STARTCHAR LOWER ONE QUARTER BLOCK
ENCODING 9602
SWIDTH 360 0
DWIDTH 10 0
BBX 10 20 0 -6
BITMAP
0000
0000
0000
0000
0000
0000
0000
0000
0000
0000
0000
0000
0000
0000
0000
FFC0
FFC0
FFC0
FFC0
FFC0
ENDCHAR
STARTCHAR LOWER THREE EIGHTHS BLOCK
ENCODING 9603
SWIDTH 360 0
DWIDTH 10 0
BBX 10 20 0 -6
BITMAP
0000
0000
0000
0000
0000
0000
0000
0000
0000
0000
0000
0000
0000
FFC0
FFC0
FFC0
FFC0
FFC0
FFC0
FFC0
ENDCHAR
STARTCHAR LOWER HALF BLOCK
ENCODING 9604
SWIDTH 360 0
DWIDTH 10 0
BBX 10 20 0 -6
BITMAP
0000
0000
0000
0000
0000
0000
0000
0000
0000
0000
FFC0
FFC0
FFC0
FFC0
FFC0
FFC0
FFC0
FFC0
FFC0
FFC0
ENDCHAR
STARTCHAR LOWER FIVE EIGHTHS BLOCK
ENCODING 9605
SWIDTH 360 0
DWIDTH 10 0
BBX 10 20 0 -6
BITMAP
0000
0000
0000
0000
0000
0000
0000
0000
FFC0
FFC0
FFC0
FFC0
FFC0
FFC0
FFC0
FFC0
FFC0
FFC0
FFC0
FFC0
ENDCHAR
STARTCHAR LOWER THREE QUARTERS BLOCK
ENCODING 9606
SWIDTH 360 0
DWIDTH 10 0
BBX 10 20 0 -6
BITMAP
0000
0000
0000
0000
0000
FFC0
FFC0
FFC0
FFC0
FFC0
FFC0
FFC0
FFC0
FFC0
FFC0
FFC0
FFC0
FFC0
FFC0
FFC0
ENDCHAR
STARTCHAR LOWER SEVEN EIGHTHS BLOCK
ENCODING 9607
SWIDTH 360 0
DWIDTH 10 0
BBX 10 20 0 -6
BITMAP
0000
0000
0000
FFC0
FFC0
FFC0
FFC0
FFC0
FFC0
FFC0
FFC0
FFC0
FFC0
FFC0
FFC0
FFC0
FFC0
FFC0
FFC0
FFC0
ENDCHAR
STARTCHAR FULL BLOCK
ENCODING 9608
SWIDTH 360 0
DWIDTH 10 0
BBX 10 20 0 -6
BITMAP
FFC0
FFC0
FFC0
FFC0
FFC0
FFC0
FFC0
FFC0
FFC0
FFC0
FFC0
FFC0
FFC0
FFC0
FFC0
FFC0
FFC0
FFC0
FFC0
FFC0
ENDCHAR
STARTCHAR LEFT SEVEN EIGHTHS BLOCK
ENCODING 9609
SWIDTH 360 0
DWIDTH 10 0
BBX 10 20 0 -6
BITMAP
FF80
FF80
FF80
FF80
FF80
FF80
FF80
FF80
FF80
FF80
FF80
FF80
FF80
FF80
FF80
FF80
FF80
FF80
FF80
FF80
ENDCHAR
STARTCHAR LEFT THREE QUARTERS BLOCK
ENCODING 9610
SWIDTH 360 0
DWIDTH 10 0
BBX 10 20 0 -6
BITMAP
FE00
FE00
FE00
FE00
FE00
FE00
FE00
FE00
FE00
FE00
FE00
FE00
FE00
FE00
FE00
FE00
FE00
FE00
FE00
FE00
ENDCHAR
STARTCHAR LEFT FIVE EIGHTHS BLOCK
ENCODING 9611
SWIDTH 360 0
DWIDTH 10 0
BBX 10 20 0 -6
BITMAP
FC00
FC00
FC00
FC00
FC00
FC00
FC00
FC00
FC00
FC00
FC00
FC00
FC00
FC00
FC00
FC00
FC00
FC00
FC00
FC00
ENDCHAR
STARTCHAR LEFT HALF BLOCK
ENCODING 9612
SWIDTH 360 0
DWIDTH 10 0
BBX 10 20 0 -6
BITMAP
F800
F800
F800
F800
F800
F800
F800
F800
F800
F800
F800
F800
F800
F800
F800
F800
F800
F800
F800
F800
ENDCHAR
STARTCHAR LEFT THREE EIGHTHS BLOCK
ENCODING 9613
SWIDTH 360 0
DWIDTH 10 0
BBX 10 20 0 -6
BITMAP
F000
F000
F000
F000
F000
F000
F000
F000
F000
F000
F000
F000
F000
F000
F000
F000
F000
F000
F000
F000
ENDCHAR
STARTCHAR LEFT ONE QUARTER BLOCK
ENCODING 9614
SWIDTH 360 0
DWIDTH 10 0
BBX 10 20 0 -6
BITMAP
C000
C000
C000
C000
C000
C000
C000
C000
C000
C000
C000
C000
C000
C000
C000
C000
C000
C000
C000
C000
ENDCHAR
STARTCHAR LEFT ONE EIGHTH BLOCK
ENCODING 9615
SWIDTH 360 0
DWIDTH 10 0
BBX 10 20 0 -6
BITMAP
8000
8000
8000
8000
8000
8000
8000
8000
8000
8000
8000
8000
8000
8000
8000
8000
8000
8000
8000
8000
ENDCHAR
STARTCHAR RIGHT HALF BLOCK
ENCODING 9616
SWIDTH 360 0
DWIDTH 10 0
BBX 10 20 0 -6
BITMAP
07C0
07C0
07C0
07C0
07C0
07C0
07C0
07C0
07C0
07C0
07C0
07C0
07C0
07C0
07C0
07C0
07C0
07C0
07C0
07C0
ENDCHAR
STARTCHAR LIGHT SHADE
ENCODING 9617
SWIDTH 360 0
DWIDTH 10 0
BBX 10 20 0 -6
BITMAP
0000
4200
0000
1080
0000
8400
0000
2100
0000
0840
0000
4200
0000
1080
0000
8400
0000
2100
0000
0840
ENDCHAR
STARTCHAR LIGHT SHADE
ENCODING 9618
SWIDTH 360 0
DWIDTH 10 0
BBX 10 20 0 -6
BITMAP
0000
5540
0000
AA80
0000
5540
0000
AA80
0000
5540
0000
AA80
0000
5540
0000
AA80
0000
5540
0000
AA80
ENDCHAR
STARTCHAR LIGHT SHADE
ENCODING 9619
SWIDTH 360 0
DWIDTH 10 0
BBX 10 20 0 -6
BITMAP
AA80
5540
AA80
5540
AA80
5540
AA80
5540
AA80
5540
AA80
5540
AA80
5540
AA80
5540
AA80
5540
AA80
5540
ENDCHAR
STARTCHAR QUADRANT LOWER LEFT
ENCODING 9622
SWIDTH 360 0
DWIDTH 10 0
BBX 10 20 0 -6
BITMAP
0000
0000
0000
0000
0000
0000
0000
0000
0000
0000
F800
F800
F800
F800
F800
F800
F800
F800
F800
F800
ENDCHAR
STARTCHAR QUADRANT LOWER RIGHT
ENCODING 9623
SWIDTH 360 0
DWIDTH 10 0
BBX 10 20 0 -6
BITMAP
0000
0000
0000
0000
0000
0000
0000
0000
0000
0000
07C0
07C0
07C0
07C0
07C0
07C0
07C0
07C0
07C0
07C0
ENDCHAR
STARTCHAR QUADRANT UPPER LEFT
ENCODING 9624
SWIDTH 360 0
DWIDTH 10 0
BBX 10 20 0 -6
BITMAP
F800
F800
F800
F800
F800
F800
F800
F800
F800
F800
0000
0000
0000
0000
0000
0000
0000
0000
0000
0000
ENDCHAR
STARTCHAR QUADRANT UPPER LEFT AND LOWER LEFT AND LOWER RIGHT
ENCODING 9625
SWIDTH 360 0
DWIDTH 10 0
BBX 10 20 0 -6
BITMAP
F800
F800
F800
F800
F800
F800
F800
F800
F800
F800
FFC0
FFC0
FFC0
FFC0
FFC0
FFC0
FFC0
FFC0
FFC0
FFC0
ENDCHAR
STARTCHAR QUADRANT UPPER LEFT AND LOWER RIGHT
ENCODING 9626
SWIDTH 360 0
DWIDTH 10 0
BBX 10 20 0 -6
BITMAP
F800
F800
F800
F800
F800
F800
F800
F800
F800
F800
07C0
07C0
07C0
07C0
07C0
07C0
07C0
07C0
07C0
07C0
ENDCHAR
STARTCHAR QUADRANT UPPER LEFT AND UPPER RIGHT AND LOWER LEFT
ENCODING 9627
SWIDTH 360 0
DWIDTH 10 0
BBX 10 20 0 -6
BITMAP
FFC0
FFC0
FFC0
FFC0
FFC0
FFC0
FFC0
FFC0
FFC0
FFC0
F800
F800
F800
F800
F800
F800
F800
F800
F800
F800
ENDCHAR
STARTCHAR QUADRANT UPPER LEFT AND UPPER RIGHT AND LOWER RIGHT
ENCODING 9628
SWIDTH 360 0
DWIDTH 10 0
BBX 10 20 0 -6
BITMAP
FFC0
FFC0
FFC0
FFC0
FFC0
FFC0
FFC0
FFC0
FFC0
FFC0
07C0
07C0
07C0
07C0
07C0
07C0
07C0
07C0
07C0
07C0
ENDCHAR
STARTCHAR QUADRANT UPPER RIGHT
ENCODING 9629
SWIDTH 360 0
DWIDTH 10 0
BBX 10 20 0 -6
BITMAP
07C0
07C0
07C0
07C0
07C0
07C0
07C0
07C0
07C0
07C0
0000
0000
0000
0000
0000
0000
0000
0000
0000
0000
ENDCHAR
STARTCHAR QUADRANT UPPER RIGHT AND LOWER LEFT
ENCODING 9630
SWIDTH 360 0
DWIDTH 10 0
BBX 10 20 0 -6
BITMAP
07C0
07C0
07C0
07C0
07C0
07C0
07C0
07C0
07C0
07C0
F800
F800
F800
F800
F800
F800
F800
F800
F800
F800
ENDCHAR
STARTCHAR QUADRANT UPPER RIGHT AND LOWER LEFT AND LOWER RIGHT
ENCODING 9631
SWIDTH 360 0
DWIDTH 10 0
BBX 10 20 0 -6
BITMAP
07C0
07C0
07C0
07C0
07C0
07C0
07C0
07C0
07C0
07C0
FFC0
FFC0
FFC0
FFC0
FFC0
FFC0
FFC0
FFC0
FFC0
FFC0
ENDCHAR
STARTCHAR BLACK SQUARE
ENCODING 9632
SWIDTH 360 0
DWIDTH 10 0
BBX 10 20 0 -6
BITMAP
0000
0000
0000
0000
0000
0000
7F80
7F80
7F80
7F80
7F80
7F80
7F80
7F80
0000
0000
0000
0000
0000
0000
ENDCHAR
STARTCHAR BLACK RECTANGLE
ENCODING 9644
SWIDTH 360 0
DWIDTH 10 0
BBX 10 20 0 -6
BITMAP
0000
0000
0000
0000
0000
0000
0000
0000
0000
0000
0000
7F80
7F80
7F80
7F80
7F80
0000
0000
0000
0000
ENDCHAR
STARTCHAR BLACK VERTICAL RECTANGLE
ENCODING 9646
SWIDTH 360 0
DWIDTH 10 0
BBX 10 20 0 -6
BITMAP
0000
0000
0000
7F00
7F00
7F00
7F00
7F00
7F00
7F00
7F00
7F00
7F00
7F00
7F00
7F00
0000
0000
0000
0000
ENDCHAR
STARTCHAR BLACK UP-POINTING TRIANGLE
ENCODING 9650
SWIDTH 360 0
DWIDTH 10 0
BBX 10 20 0 -6
BITMAP
0000
0000
0000
0000
0000
0000
0000
0000
0800
1C00
3E00
7F00
FF80
0000
0000
0000
0000
0000
0000
0000
ENDCHAR
STARTCHAR BLACK RIGHT-POINTING TRIANGLE
ENCODING 9654
SWIDTH 360 0
DWIDTH 10 0
BBX 10 20 0 -6
BITMAP
0000
0000
0000
0000
0000
2000
3000
3800
3C00
3E00
3C00
3800
3000
2000
0000
0000
0000
0000
0000
0000
ENDCHAR
STARTCHAR BLACK DOWN-POINTING TRIANGLE
ENCODING 9660
SWIDTH 360 0
DWIDTH 10 0
BBX 10 20 0 -6
BITMAP
0000
0000
0000
0000
0000
0000
0000
0000
FF80
7F00
3E00
1C00
0800
0000
0000
0000
0000
0000
0000
0000
ENDCHAR
STARTCHAR BLACK LEFT-POINTING TRIANGLE
ENCODING 9664
SWIDTH 360 0
DWIDTH 10 0
BBX 10 20 0 -6
BITMAP
0000
0000
0000
0000
0000
0200
0600
0E00
1E00
3E00
1E00
0E00
0600
0200
0000
0000
0000
0000
0000
0000
ENDCHAR
STARTCHAR BLACK DIAMOND
ENCODING 9670
SWIDTH 360 0
DWIDTH 10 0
BBX 10 20 0 -6
BITMAP
0000
0000
0000
0000
0000
0800
1C00
3E00
7F00
FF80
7F00
3E00
1C00
0800
0000
0000
0000
0000
0000
0000
ENDCHAR
STARTCHAR LOZENGE
ENCODING 9674
SWIDTH 360 0
DWIDTH 10 0
BBX 10 20 0 -6
BITMAP
0000
0000
0000
0000
0000
0800
1400
2200
4100
8080
4100
2200
1400
0800
0000
0000
0000
0000
0000
0000
ENDCHAR
STARTCHAR WHITE CIRCLE
ENCODING 9675
SWIDTH 360 0
DWIDTH 10 0
BBX 10 20 0 -6
BITMAP
0000
0000
0000
0000
0000
0000
0000
1E00
2100
2100
2100
2100
1E00
0000
0000
0000
0000
0000
0000
0000
ENDCHAR
STARTCHAR BLACK CIRCLE
ENCODING 9679
SWIDTH 360 0
DWIDTH 10 0
BBX 10 20 0 -6
BITMAP
0000
0000
0000
0000
0000
0000
0000
1E00
3F00
3F00
3F00
3F00
1E00
0000
0000
0000
0000
0000
0000
0000
ENDCHAR
STARTCHAR INVERSE BULLET
ENCODING 9688
SWIDTH 360 0
DWIDTH 10 0
BBX 10 20 0 -6
BITMAP
FFC0
FFC0
FFC0
FFC0
FFC0
FFC0
FFC0
FFC0
F3C0
E1C0
E1C0
F3C0
FFC0
FFC0
FFC0
FFC0
FFC0
FFC0
FFC0
FFC0
ENDCHAR
STARTCHAR INVERSE WHITE CIRCLE
ENCODING 9689
SWIDTH 360 0
DWIDTH 10 0
BBX 10 20 0 -6
BITMAP
FFC0
FFC0
FFC0
FFC0
FFC0
FFC0
FFC0
E1C0
DEC0
DEC0
DEC0
DEC0
E1C0
FFC0
FFC0
FFC0
FFC0
FFC0
FFC0
FFC0
ENDCHAR
STARTCHAR WHITE SMILING FACE
ENCODING 9786
SWIDTH 360 0
DWIDTH 10 0
BBX 10 20 0 -6
BITMAP
0000
0000
0000
0000
7F80
8040
8040
B340
A240
8040
8040
A140
9E40
8040
8040
7F80
0000
0000
0000
0000
ENDCHAR
STARTCHAR BLACK SMILING FACE
ENCODING 9787
SWIDTH 360 0
DWIDTH 10 0
BBX 10 20 0 -6
BITMAP
0000
0000
0000
0000
7F80
FFC0
FFC0
CCC0
DDC0
FFC0
FFC0
DEC0
E1C0
FFC0
FFC0
7F80
0000
0000
0000
0000
ENDCHAR
STARTCHAR WHITE SUN WITH RAYS
ENCODING 9788
SWIDTH 360 0
DWIDTH 10 0
BBX 10 20 0 -6
BITMAP
0000
0000
0000
0800
0800
8880
4900
2A00
1C00
F780
1C00
2A00
4900
8880
0800
0800
0000
0000
0000
0000
ENDCHAR
STARTCHAR BLACK SPADE SUIT
ENCODING 9824
SWIDTH 360 0
DWIDTH 10 0
BBX 10 20 0 -6
BITMAP
0000
0000
0000
0000
0800
0800
1C00
3E00
7F00
FF80
FF80
FF80
6B00
0800
3E00
0000
0000
0000
0000
0000
ENDCHAR
STARTCHAR BLACK CLUB SUIT
ENCODING 9827
SWIDTH 360 0
DWIDTH 10 0
BBX 10 20 0 -6
BITMAP
0000
0000
0000
0000
0800
1C00
3E00
3E00
1C00
6B00
FF80
FF80
6B00
0800
3E00
0000
0000
0000
0000
0000
ENDCHAR
STARTCHAR BLACK HEART SUIT
ENCODING 9829
SWIDTH 360 0
DWIDTH 10 0
BBX 10 20 0 -6
BITMAP
0000
0000
0000
0000
0000
0000
6300
F780
FF80
FF80
7F00
3E00
1C00
0800
0000
0000
0000
0000
0000
0000
ENDCHAR
STARTCHAR BLACK DIAMOND SUIT
ENCODING 9830
SWIDTH 360 0
DWIDTH 10 0
BBX 10 20 0 -6
BITMAP
0000
0000
0000
0000
0000
0800
1C00
3E00
7F00
FF80
7F00
3E00
1C00
0800
0000
0000
0000
0000
0000
0000
ENDCHAR
STARTCHAR char9835
ENCODING 9835
SWIDTH 360 0
DWIDTH 10 0
BBX 10 20 0 -6
BITMAP
0000
0000
0000
0000
0000
0000
1F80
1F80
1080
1080
1080
1080
1080
7380
7380
0000
0000
0000
0000
0000
ENDCHAR
STARTCHAR char57392
ENCODING 57392
SWIDTH 360 0
DWIDTH 10 0
BBX 10 20 0 -6
BITMAP
0000
0000
0000
0000
0000
FFC0
FFC0
FFC0
FFC0
FFC0
FFC0
FFC0
FFC0
FFC0
FFC0
0000
0000
0000
0000
0000
ENDCHAR
STARTCHAR char57393
ENCODING 57393
SWIDTH 360 0
DWIDTH 10 0
BBX 10 20 0 -6
BITMAP
0000
0000
0000
0000
0000
FFC0
8040
BF40
BF40
BF40
BF40
BF40
BF40
8040
FFC0
0000
0000
0000
0000
0000
ENDCHAR
STARTCHAR char57393
ENCODING 57394
SWIDTH 360 0
DWIDTH 10 0
BBX 10 20 0 -6
BITMAP
0000
0000
0000
0000
0000
FFC0
8040
8040
8040
8040
8040
8040
8040
8040
FFC0
0000
0000
0000
0000
0000
ENDCHAR
STARTCHAR char57395
ENCODING 57395
SWIDTH 360 0
DWIDTH 10 0
BBX 10 20 0 -6
BITMAP
0000
0000
0000
0000
0000
FFC0
8040
BF40
A140
A140
A140
A140
BF40
8040
FFC0
0000
0000
0000
0000
0000
ENDCHAR
STARTCHAR char57396
ENCODING 57396
SWIDTH 360 0
DWIDTH 10 0
BBX 10 20 0 -6
BITMAP
0000
0000
0000
0000
0000
FFC0
9240
A4C0
C940
9240
A4C0
C940
9240
A440
FFC0
0000
0000
0000
0000
0000
ENDCHAR
STARTCHAR char57397
ENCODING 57397
SWIDTH 360 0
DWIDTH 10 0
BBX 10 20 0 -6
BITMAP
0000
0000
0000
0000
0000
FFC0
8040
9540
AA40
9540
AA40
9540
AA40
8040
FFC0
0000
0000
0000
0000
0000
ENDCHAR
STARTCHAR char57394
ENCODING 57398
SWIDTH 360 0
DWIDTH 10 0
BBX 10 20 0 -6
BITMAP
0000
0000
0000
0000
0000
FFC0
8040
9240
BF40
9240
9240
BF40
9240
8040
FFC0
0000
0000
0000
0000
0000
ENDCHAR
STARTCHAR char57393
ENCODING 57399
SWIDTH 360 0
DWIDTH 10 0
BBX 10 20 0 -6
BITMAP
0000
0000
0000
0000
0000
E1C0
8040
8040
0000
0000
0000
0000
8040
8040
E1C0
0000
0000
0000
0000
0000
ENDCHAR
STARTCHAR char57393
ENCODING 57400
SWIDTH 360 0
DWIDTH 10 0
BBX 10 20 0 -6
BITMAP
0000
0000
0000
0000
0000
CCC0
8040
0000
0000
8040
8040
0000
0000
8040
CCC0
0000
0000
0000
0000
0000
ENDCHAR
STARTCHAR char57393
ENCODING 57401
SWIDTH 360 0
DWIDTH 10 0
BBX 10 20 0 -6
BITMAP
0000
0000
0000
0000
0000
9240
2480
4900
9240
2480
4900
9240
2480
4900
9240
0000
0000
0000
0000
0000
ENDCHAR
STARTCHAR char57408
ENCODING 57408
SWIDTH 360 0
DWIDTH 10 0
BBX 10 20 0 -6
BITMAP
0000
0000
0000
0000
FFC0
FFC0
FFC0
FFC0
FFC0
FFC0
FFC0
FFC0
FFC0
FFC0
FFC0
FFC0
0000
0000
0000
0000
ENDCHAR
STARTCHAR char57408
ENCODING 57410
SWIDTH 360 0
DWIDTH 10 0
BBX 10 20 0 -6
BITMAP
0000
0000
0000
0000
FFC0
8000
BFC0
BFC0
BFC0
BFC0
BFC0
BFC0
BFC0
BFC0
8000
FFC0
0000
0000
0000
0000
ENDCHAR
STARTCHAR char57409
ENCODING 57411
SWIDTH 360 0
DWIDTH 10 0
BBX 10 20 0 -6
BITMAP
0000
0000
0000
0000
FFC0
0040
FF40
FF40
FF40
FF40
FF40
FF40
FF40
FF40
0040
FFC0
0000
0000
0000
0000
ENDCHAR
STARTCHAR char57414
ENCODING 57412
SWIDTH 360 0
DWIDTH 10 0
BBX 10 20 0 -6
BITMAP
0000
0000
0000
0000
FFC0
8000
8000
8000
8000
8000
8000
8000
8000
8000
8000
FFC0
0000
0000
0000
0000
ENDCHAR
STARTCHAR char57414
ENCODING 57413
SWIDTH 360 0
DWIDTH 10 0
BBX 10 20 0 -6
BITMAP
0000
0000
0000
0000
FFC0
0040
0040
0040
0040
0040
0040
0040
0040
0040
0040
FFC0
0000
0000
0000
0000
ENDCHAR
STARTCHAR char57408
ENCODING 57424
SWIDTH 360 0
DWIDTH 10 0
BBX 10 20 0 -6
BITMAP
0000
0000
0000
0000
0000
0000
FFC0
FFC0
FFC0
FFC0
FFC0
FFC0
FFC0
FFC0
0000
0000
0000
0000
0000
0000
ENDCHAR
STARTCHAR char57408
ENCODING 57426
SWIDTH 360 0
DWIDTH 10 0
BBX 10 20 0 -6
BITMAP
0000
0000
0000
0000
0000
0000
0000
FFC0
8000
8000
8FC0
8000
8000
FFC0
0000
0000
0000
0000
0000
0000
ENDCHAR
STARTCHAR char57408
ENCODING 57427
SWIDTH 360 0
DWIDTH 10 0
BBX 10 20 0 -6
BITMAP
0000
0000
0000
0000
0000
0000
0000
FFC0
0040
0040
FC40
0040
0040
FFC0
0000
0000
0000
0000
0000
0000
ENDCHAR
STARTCHAR char57408
ENCODING 57428
SWIDTH 360 0
DWIDTH 10 0
BBX 10 20 0 -6
BITMAP
0000
0000
0000
0000
0000
0000
0000
FFC0
8000
8000
8000
8000
8000
FFC0
0000
0000
0000
0000
0000
0000
ENDCHAR
STARTCHAR char57408
ENCODING 57429
SWIDTH 360 0
DWIDTH 10 0
BBX 10 20 0 -6
BITMAP
0000
0000
0000
0000
0000
0000
0000
FFC0
0040
0040
0040
0040
0040
FFC0
0000
0000
0000
0000
0000
0000
ENDCHAR
STARTCHAR char57440
ENCODING 57440
SWIDTH 360 0
DWIDTH 10 0
BBX 10 20 0 -6
BITMAP
0000
0000
0000
0000
0000
0000
0000
7F80
0000
0000
7F80
0000
0000
7F80
0000
0000
0000
0000
0000
0000
ENDCHAR
STARTCHAR char57441
ENCODING 57441
SWIDTH 360 0
DWIDTH 10 0
BBX 10 20 0 -6
BITMAP
0000
0000
0000
0000
0000
0000
0000
6D80
0000
0000
7F80
0000
0000
7F80
0000
0000
0000
0000
0000
0000
ENDCHAR
STARTCHAR char57440
ENCODING 57442
SWIDTH 360 0
DWIDTH 10 0
BBX 10 20 0 -6
BITMAP
0000
0000
0000
0000
0000
0000
0000
7F80
0000
0000
6D80
0000
0000
7F80
0000
0000
0000
0000
0000
0000
ENDCHAR
STARTCHAR char57440
ENCODING 57443
SWIDTH 360 0
DWIDTH 10 0
BBX 10 20 0 -6
BITMAP
0000
0000
0000
0000
0000
0000
0000
7F80
0000
0000
7F80
0000
0000
6D80
0000
0000
0000
0000
0000
0000
ENDCHAR
STARTCHAR char57440
ENCODING 57444
SWIDTH 360 0
DWIDTH 10 0
BBX 10 20 0 -6
BITMAP
0000
0000
0000
0000
0000
0000
0000
6D80
0000
0000
6D80
0000
0000
7F80
0000
0000
0000
0000
0000
0000
ENDCHAR
STARTCHAR char57440
ENCODING 57445
SWIDTH 360 0
DWIDTH 10 0
BBX 10 20 0 -6
BITMAP
0000
0000
0000
0000
0000
0000
0000
6D80
0000
0000
7F80
0000
0000
6D80
0000
0000
0000
0000
0000
0000
ENDCHAR
STARTCHAR char57440
ENCODING 57446
SWIDTH 360 0
DWIDTH 10 0
BBX 10 20 0 -6
BITMAP
0000
0000
0000
0000
0000
0000
0000
7F80
0000
0000
6D80
0000
0000
6D80
0000
0000
0000
0000
0000
0000
ENDCHAR
STARTCHAR char57440
ENCODING 57447
SWIDTH 360 0
DWIDTH 10 0
BBX 10 20 0 -6
BITMAP
0000
0000
0000
0000
0000
0000
0000
6D80
0000
0000
6D80
0000
0000
6D80
0000
0000
0000
0000
0000
0000
ENDCHAR
STARTCHAR char57461
ENCODING 57456
SWIDTH 360 0
DWIDTH 10 0
BBX 10 20 0 -6
BITMAP
0000
0000
0000
0000
0000
FFC0
8840
8840
8840
8840
8840
8040
8040
8040
FFC0
0000
0000
0000
0000
0000
ENDCHAR
STARTCHAR char57461
ENCODING 57457
SWIDTH 360 0
DWIDTH 10 0
BBX 10 20 0 -6
BITMAP
0000
0000
0000
0000
0000
FFC0
8040
8040
8040
8FC0
8040
8040
8040
8040
FFC0
0000
0000
0000
0000
0000
ENDCHAR
STARTCHAR char57461
ENCODING 57458
SWIDTH 360 0
DWIDTH 10 0
BBX 10 20 0 -6
BITMAP
0000
0000
0000
0000
0000
FFC0
8040
8040
8040
8840
8840
8840
8840
8840
FFC0
0000
0000
0000
0000
0000
ENDCHAR
STARTCHAR char57461
ENCODING 57459
SWIDTH 360 0
DWIDTH 10 0
BBX 10 20 0 -6
BITMAP
0000
0000
0000
0000
0000
FFC0
8040
8040
8040
FC40
8040
8040
8040
8040
FFC0
0000
0000
0000
0000
0000
ENDCHAR
STARTCHAR char57461
ENCODING 57460
SWIDTH 360 0
DWIDTH 10 0
BBX 10 20 0 -6
BITMAP
0000
0000
0000
0000
0000
FFC0
8040
8040
8040
8FC0
8840
8840
8840
8840
FFC0
0000
0000
0000
0000
0000
ENDCHAR
STARTCHAR char57461
ENCODING 57461
SWIDTH 360 0
DWIDTH 10 0
BBX 10 20 0 -6
BITMAP
0000
0000
0000
0000
0000
FFC0
8040
8040
8040
FFC0
8040
8040
8040
8040
FFC0
0000
0000
0000
0000
0000
ENDCHAR
STARTCHAR char57461
ENCODING 57462
SWIDTH 360 0
DWIDTH 10 0
BBX 10 20 0 -6
BITMAP
0000
0000
0000
0000
0000
FFC0
8040
8040
8040
FC40
8440
8440
8440
8440
FFC0
0000
0000
0000
0000
0000
ENDCHAR
STARTCHAR char57461
ENCODING 57463
SWIDTH 360 0
DWIDTH 10 0
BBX 10 20 0 -6
BITMAP
0000
0000
0000
0000
0000
FFC0
8440
8440
8440
FC40
8440
8440
8440
8440
FFC0
0000
0000
0000
0000
0000
ENDCHAR
STARTCHAR char57461
ENCODING 57464
SWIDTH 360 0
DWIDTH 10 0
BBX 10 20 0 -6
BITMAP
0000
0000
0000
0000
0000
FFC0
8040
8040
8040
FFC0
8440
8440
8440
8440
FFC0
0000
0000
0000
0000
0000
ENDCHAR
STARTCHAR char57461
ENCODING 57465
SWIDTH 360 0
DWIDTH 10 0
BBX 10 20 0 -6
BITMAP
0000
0000
0000
0000
0000
FFC0
8840
8840
8840
FFC0
8840
8840
8840
8840
FFC0
0000
0000
0000
0000
0000
ENDCHAR
STARTCHAR char57520
ENCODING 57520
SWIDTH 360 0
DWIDTH 10 0
BBX 10 20 0 -6
BITMAP
8000
C000
E000
F000
F800
FC00
FE00
FF00
FF80
FFC0
FFC0
FF80
FF00
FE00
FC00
F800
F000
E000
C000
8000
ENDCHAR
STARTCHAR char57521
ENCODING 57521
SWIDTH 360 0
DWIDTH 10 0
BBX 10 20 0 -6
BITMAP
8000
4000
2000
1000
0800
0400
0200
0100
0080
0040
0040
0080
0100
0200
0400
0800
1000
2000
4000
8000
ENDCHAR
STARTCHAR char57522
ENCODING 57522
SWIDTH 360 0
DWIDTH 10 0
BBX 10 20 0 -6
BITMAP
0040
00C0
01C0
03C0
07C0
0FC0
1FC0
3FC0
7FC0
FFC0
FFC0
7FC0
3FC0
1FC0
0FC0
07C0
03C0
01C0
00C0
0040
ENDCHAR
STARTCHAR char57523
ENCODING 57523
SWIDTH 360 0
DWIDTH 10 0
BBX 10 20 0 -6
BITMAP
0040
0080
0100
0200
0400
0800
1000
2000
4000
8000
8000
4000
2000
1000
0800
0400
0200
0100
0080
0040
ENDCHAR
STARTCHAR REPLACEMENT CHARACTER
ENCODING 65533
SWIDTH 360 0
DWIDTH 10 0
BBX 10 20 0 -6
BITMAP
0000
0000
0000
0000
0000
7F00
4100
4100
4100
4100
4100
4100
4100
7F00
0000
0000
0000
0000
0000
0000
ENDCHAR
ENDFONT
